<mxfile host="app.diagrams.net" modified="2023-07-28T19:29:20.482Z" agent="Mozilla/5.0 (Macintosh; Intel Mac OS X 10_15_7) AppleWebKit/537.36 (KHTML, like Gecko) Chrome/115.0.0.0 Safari/537.36" etag="uoyY7JqXtwcx-tI8tazo" version="21.5.2" type="device">
  <diagram name="Page-1" id="OjYdK4II-sp3FTS1gZaA">
    <mxGraphModel dx="1064" dy="679" grid="1" gridSize="10" guides="1" tooltips="1" connect="1" arrows="1" fold="1" page="1" pageScale="1" pageWidth="850" pageHeight="1100" math="0" shadow="0">
      <root>
        <mxCell id="0" />
        <mxCell id="1" parent="0" />
        <mxCell id="SraO-4PZSHpIVf2TnJLi-2" value="AWS Cloud" style="points=[[0,0],[0.25,0],[0.5,0],[0.75,0],[1,0],[1,0.25],[1,0.5],[1,0.75],[1,1],[0.75,1],[0.5,1],[0.25,1],[0,1],[0,0.75],[0,0.5],[0,0.25]];outlineConnect=0;gradientColor=none;html=1;whiteSpace=wrap;fontSize=12;fontStyle=0;container=1;pointerEvents=0;collapsible=0;recursiveResize=0;shape=mxgraph.aws4.group;grIcon=mxgraph.aws4.group_aws_cloud_alt;strokeColor=#232F3E;fillColor=none;verticalAlign=top;align=left;spacingLeft=30;fontColor=#232F3E;dashed=0;" vertex="1" parent="1">
          <mxGeometry x="300" y="30" width="200" height="210" as="geometry" />
        </mxCell>
        <mxCell id="SraO-4PZSHpIVf2TnJLi-12" value="&lt;font style=&quot;font-size: 14px;&quot;&gt;ECR&lt;/font&gt;" style="sketch=0;points=[[0,0,0],[0.25,0,0],[0.5,0,0],[0.75,0,0],[1,0,0],[0,1,0],[0.25,1,0],[0.5,1,0],[0.75,1,0],[1,1,0],[0,0.25,0],[0,0.5,0],[0,0.75,0],[1,0.25,0],[1,0.5,0],[1,0.75,0]];outlineConnect=0;fontColor=#232F3E;gradientColor=#F78E04;gradientDirection=north;fillColor=#D05C17;strokeColor=#ffffff;dashed=0;verticalLabelPosition=bottom;verticalAlign=top;align=center;html=1;fontSize=12;fontStyle=0;aspect=fixed;shape=mxgraph.aws4.resourceIcon;resIcon=mxgraph.aws4.ecr;" vertex="1" parent="SraO-4PZSHpIVf2TnJLi-2">
          <mxGeometry x="10" y="70" width="78" height="78" as="geometry" />
        </mxCell>
        <mxCell id="SraO-4PZSHpIVf2TnJLi-13" value="&lt;font style=&quot;font-size: 14px;&quot;&gt;My Registry&lt;/font&gt;" style="sketch=0;outlineConnect=0;fontColor=#232F3E;gradientColor=none;fillColor=#D45B07;strokeColor=none;dashed=0;verticalLabelPosition=bottom;verticalAlign=top;align=center;html=1;fontSize=12;fontStyle=0;aspect=fixed;pointerEvents=1;shape=mxgraph.aws4.registry;" vertex="1" parent="SraO-4PZSHpIVf2TnJLi-2">
          <mxGeometry x="110" y="30" width="48" height="48" as="geometry" />
        </mxCell>
        <mxCell id="SraO-4PZSHpIVf2TnJLi-14" value="" style="edgeStyle=orthogonalEdgeStyle;curved=1;rounded=0;orthogonalLoop=1;jettySize=auto;html=1;endArrow=none;endFill=0;" edge="1" parent="SraO-4PZSHpIVf2TnJLi-2" source="SraO-4PZSHpIVf2TnJLi-15" target="SraO-4PZSHpIVf2TnJLi-13">
          <mxGeometry relative="1" as="geometry">
            <mxPoint x="202" y="144" as="targetPoint" />
            <Array as="points">
              <mxPoint x="190" y="144" />
              <mxPoint x="190" y="54" />
            </Array>
          </mxGeometry>
        </mxCell>
        <mxCell id="SraO-4PZSHpIVf2TnJLi-15" value="&lt;font style=&quot;font-size: 14px;&quot;&gt;My Image&lt;/font&gt;" style="sketch=0;outlineConnect=0;fontColor=#232F3E;gradientColor=none;fillColor=#D45B07;strokeColor=none;dashed=0;verticalLabelPosition=bottom;verticalAlign=top;align=center;html=1;fontSize=12;fontStyle=0;aspect=fixed;pointerEvents=1;shape=mxgraph.aws4.container_registry_image;" vertex="1" parent="SraO-4PZSHpIVf2TnJLi-2">
          <mxGeometry x="110" y="120" width="48" height="48" as="geometry" />
        </mxCell>
        <mxCell id="SraO-4PZSHpIVf2TnJLi-3" value="LocalStack Cloud" style="points=[[0,0],[0.25,0],[0.5,0],[0.75,0],[1,0],[1,0.25],[1,0.5],[1,0.75],[1,1],[0.75,1],[0.5,1],[0.25,1],[0,1],[0,0.75],[0,0.5],[0,0.25]];outlineConnect=0;gradientColor=none;html=1;whiteSpace=wrap;fontSize=12;fontStyle=0;container=1;pointerEvents=0;collapsible=0;recursiveResize=0;shape=mxgraph.aws4.group;grIcon=mxgraph.aws4.group_aws_cloud;strokeColor=#232F3E;fillColor=none;verticalAlign=top;align=left;spacingLeft=30;fontColor=#232F3E;dashed=0;" vertex="1" parent="1">
          <mxGeometry x="40" y="30" width="200" height="210" as="geometry" />
        </mxCell>
        <mxCell id="SraO-4PZSHpIVf2TnJLi-4" value="Docker" style="fillColor=none;strokeColor=#009999;dashed=0;verticalAlign=top;fontStyle=0;fontColor=#232F3D;whiteSpace=wrap;html=1;" vertex="1" parent="SraO-4PZSHpIVf2TnJLi-3">
          <mxGeometry x="-40" y="-30" width="270" height="270" as="geometry" />
        </mxCell>
        <mxCell id="SraO-4PZSHpIVf2TnJLi-6" value="&lt;font style=&quot;font-size: 14px;&quot;&gt;ECR&lt;/font&gt;" style="sketch=0;points=[[0,0,0],[0.25,0,0],[0.5,0,0],[0.75,0,0],[1,0,0],[0,1,0],[0.25,1,0],[0.5,1,0],[0.75,1,0],[1,1,0],[0,0.25,0],[0,0.5,0],[0,0.75,0],[1,0.25,0],[1,0.5,0],[1,0.75,0]];outlineConnect=0;fontColor=#232F3E;gradientColor=#F78E04;gradientDirection=north;fillColor=#D05C17;strokeColor=#ffffff;dashed=0;verticalLabelPosition=bottom;verticalAlign=top;align=center;html=1;fontSize=12;fontStyle=0;aspect=fixed;shape=mxgraph.aws4.resourceIcon;resIcon=mxgraph.aws4.ecr;" vertex="1" parent="SraO-4PZSHpIVf2TnJLi-3">
          <mxGeometry x="10" y="80" width="78" height="78" as="geometry" />
        </mxCell>
        <mxCell id="SraO-4PZSHpIVf2TnJLi-8" value="&lt;font style=&quot;font-size: 14px;&quot;&gt;My Registry&lt;/font&gt;" style="sketch=0;outlineConnect=0;fontColor=#232F3E;gradientColor=none;fillColor=#D45B07;strokeColor=none;dashed=0;verticalLabelPosition=bottom;verticalAlign=top;align=center;html=1;fontSize=12;fontStyle=0;aspect=fixed;pointerEvents=1;shape=mxgraph.aws4.registry;" vertex="1" parent="SraO-4PZSHpIVf2TnJLi-3">
          <mxGeometry x="110" y="40" width="48" height="48" as="geometry" />
        </mxCell>
        <mxCell id="SraO-4PZSHpIVf2TnJLi-11" value="" style="edgeStyle=orthogonalEdgeStyle;curved=1;rounded=0;orthogonalLoop=1;jettySize=auto;html=1;endArrow=none;endFill=0;" edge="1" parent="SraO-4PZSHpIVf2TnJLi-3" source="SraO-4PZSHpIVf2TnJLi-9" target="SraO-4PZSHpIVf2TnJLi-8">
          <mxGeometry relative="1" as="geometry">
            <mxPoint x="202" y="154" as="targetPoint" />
            <Array as="points">
              <mxPoint x="190" y="154" />
              <mxPoint x="190" y="64" />
            </Array>
          </mxGeometry>
        </mxCell>
        <mxCell id="SraO-4PZSHpIVf2TnJLi-9" value="&lt;font style=&quot;font-size: 14px;&quot;&gt;My Image&lt;/font&gt;" style="sketch=0;outlineConnect=0;fontColor=#232F3E;gradientColor=none;fillColor=#D45B07;strokeColor=none;dashed=0;verticalLabelPosition=bottom;verticalAlign=top;align=center;html=1;fontSize=12;fontStyle=0;aspect=fixed;pointerEvents=1;shape=mxgraph.aws4.container_registry_image;" vertex="1" parent="SraO-4PZSHpIVf2TnJLi-3">
          <mxGeometry x="110" y="130" width="48" height="48" as="geometry" />
        </mxCell>
        <mxCell id="SraO-4PZSHpIVf2TnJLi-5" value="" style="verticalLabelPosition=bottom;sketch=0;aspect=fixed;html=1;verticalAlign=top;strokeColor=none;align=center;outlineConnect=0;shape=mxgraph.citrix.laptop_2;" vertex="1" parent="1">
          <mxGeometry x="10" y="314.88" width="116" height="86.5" as="geometry" />
        </mxCell>
        <mxCell id="SraO-4PZSHpIVf2TnJLi-7" value="&lt;font style=&quot;font-size: 14px;&quot;&gt;1&lt;/font&gt;" style="text;html=1;align=center;verticalAlign=middle;resizable=0;points=[];autosize=1;strokeColor=#6c8ebf;fillColor=#dae8fc;strokeWidth=4;rounded=1;glass=0;shadow=0;" vertex="1" parent="1">
          <mxGeometry x="290" y="343.13" width="30" height="30" as="geometry" />
        </mxCell>
        <mxCell id="SraO-4PZSHpIVf2TnJLi-20" style="edgeStyle=orthogonalEdgeStyle;curved=1;rounded=0;orthogonalLoop=1;jettySize=auto;html=1;exitX=0.5;exitY=0;exitDx=0;exitDy=0;entryX=0.25;entryY=1;entryDx=0;entryDy=0;endArrow=none;endFill=0;" edge="1" parent="1" source="SraO-4PZSHpIVf2TnJLi-16" target="SraO-4PZSHpIVf2TnJLi-17">
          <mxGeometry relative="1" as="geometry" />
        </mxCell>
        <mxCell id="SraO-4PZSHpIVf2TnJLi-16" value="" style="shape=image;verticalLabelPosition=bottom;labelBackgroundColor=default;verticalAlign=top;aspect=fixed;imageAspect=0;image=data:image/png,iVBORw0KGgoAAAANSUhEUgAAAdwAAADACAYAAACuwNKhAAAKpWlDQ1BJQ0MgUHJvZmlsZQAASImVlgdQk9kWgO//p4eEFggdQm+CFIEAUkIPXTqISkgChBJDIKCIDVlcwRVFRASUBV0BUXBViqwFEcW2KCrY3SCLgLIuFmygvh8Ywu6+ee/NOzMn55uTc0+589+ZAwCZxBIIUmFZANL4mcIQbzdaVHQMDTcCsEARSAMTIMtiZwgYwcH+AJF5+3d5PwCgGXvHbCbXv///X0WOw81gAwAFIxzPyWCnIXwK0edsgTATAFQV4tfNzhTMcCfCCkKkQYTvznDiHI/OcPwcT8/GhIW4A4BGpsKTWCxhIgAkdcRPy2InInlISxG24HN4fIRn+nVOS1vNQfgowkZIjADhmfz0+L/kSfxbznhJThYrUcJzs8wK3oOXIUhlrf0/r+N/S1qqaL6GAaKkJKFPCGKlkTu7n7LaT8L8+MCgeeZxZuNnOUnkEz7P7Az3mHnmsDz8JGdTA/3nOYHnxZTkyWSGzTM3wzN0noWrQyS1EoTujHlmCRfqilLCJf4kLlOSPycpLHKes3gRgfOckRLqtxDjLvELRSGS/rl8b7eFul6S2dMy/jIvjyk5m5kU5iOZnbXQP5fPWMiZESXpjcP18FyICZfECzLdJLUEqcGSeG6qt8SfkRUqOZuJfJALZ4Mld5jM8g2eZxAOrAAdeAIbYA8sAMjkrsmcGcJ9tWCtkJeYlEljIK+LS2Py2eaLaFYWVtYAzLzVuU/hLXX2DULUawu+lGcA2DsCAL9d8MUhc7bEAkA2XfCZVCPPkAfARRm2SJg150PP/GAAEcgABaACNIEuMAJmSIe2wBG4Il36giAQBqLBSsAGSSANCEE2yAWbQQEoAjvBHlABqsFBUA+OgROgDZwBF8BlcB3cAv3gERCDYfASTID3YAqCIBxEhiiQCqQF6UOmkBVEh5whT8gfCoGioTgoEeJDIigX2gIVQSVQBVQDNUA/Q6ehC9BVqA96AA1CY9Ab6DOMgkmwAqwBG8CLYTrMgP3gMHgFnAinwzlwPrwDLodr4aNwK3wBvg73w2L4JTyJAigpFBWljTJD0VHuqCBUDCoBJURtQBWiylC1qCZUB6oHdQclRo2jPqGxaAqahjZDO6J90OFoNjodvQG9HV2Brke3orvRd9CD6An0VwwZo44xxThgmJgoTCImG1OAKcMcxrRgLmH6McOY91gsloo1xNphfbDR2GTsOux27H5sM7YT24cdwk7icDgVnCnOCReEY+EycQW4fbijuPO427hh3Ee8FF4Lb4X3wsfg+fg8fBn+CP4c/jZ+BD9FkCXoExwIQQQOYS2hmHCI0EG4SRgmTBHliIZEJ2IYMZm4mVhObCJeIj4mvpWSktKRspdaJsWT2iRVLnVc6orUoNQnkjzJhOROiiWJSDtIdaRO0gPSWzKZbEB2JceQM8k7yA3ki+Sn5I/SFGlzaaY0R3qjdKV0q/Rt6VcyBBl9GYbMSpkcmTKZkzI3ZcZlCbIGsu6yLNkNspWyp2XvyU7KUeQs5YLk0uS2yx2Ruyo3Ko+TN5D3lOfI58sflL8oP0RBUXQp7hQ2ZQvlEOUSZVgBq2CowFRIVihSOKbQqzChKK+4RDFCcY1ipeJZRTEVRTWgMqmp1GLqCeoA9bOShhJDiau0TalJ6bbSB2U1ZVdlrnKhcrNyv/JnFZqKp0qKyi6VNpUnqmhVE9VlqtmqB1QvqY6rKag5qrHVCtVOqD1Uh9VN1EPU16kfVL+hPqmhqeGtIdDYp3FRY1yTqumqmaxZqnlOc0yLouWsxdMq1Tqv9YKmSGPQUmnltG7ahLa6to+2SLtGu1d7SsdQJ1wnT6dZ54kuUZeum6BbqtulO6GnpRegl6vXqPdQn6BP10/S36vfo//BwNAg0mCrQZvBqKGyIdMwx7DR8LER2cjFKN2o1uiuMdaYbpxivN/4lglsYmOSZFJpctMUNrU15ZnuN+1bhFlkv4i/qHbRPTOSGcMsy6zRbNCcau5vnmfeZv5qsd7imMW7Fvcs/mphY5FqccjikaW8pa9lnmWH5RsrEyu2VaXVXWuytZf1Rut269dLTJdwlxxYct+GYhNgs9Wmy+aLrZ2t0LbJdsxOzy7OrsruHl2BHkzfTr9ij7F3s99of8b+k4OtQ6bDCYc/Hc0cUxyPOI4uNVzKXXpo6ZCTjhPLqcZJ7ExzjnP+0Vnsou3Ccql1eeaq68pxPew6wjBmJDOOMl65WbgJ3VrcPrg7uK937/RAeXh7FHr0esp7hntWeD710vFK9Gr0mvC28V7n3emD8fHz2eVzj6nBZDMbmBO+dr7rfbv9SH6hfhV+z/xN/IX+HQFwgG/A7oDHgfqB/MC2IBDEDNod9CTYMDg9+Jdl2GXByyqXPQ+xDMkN6QmlhK4KPRL6PswtrDjsUbhRuCi8K0ImIjaiIeJDpEdkSaQ4anHU+qjr0arRvOj2GFxMRMzhmMnlnsv3LB+OtYktiB1YYbhizYqrK1VXpq48u0pmFWvVyThMXGTckbhpVhCrljUZz4yvip9gu7P3sl9yXDmlnDGuE7eEO5LglFCSMJrolLg7cSzJJaksaZznzqvgvU72Sa5O/pASlFKX8i01MrU5DZ8Wl3aaL89P4Xev1ly9ZnWfwFRQIBCnO6TvSZ8Q+gkPZ0AZKzLaMxWQpeiGyEj0nWgwyzmrMutjdkT2yTVya/hrbqw1Wbtt7UiOV85P69Dr2Ou6crVzN+cOrmesr9kAbYjf0LVRd2P+xuFN3pvqNxM3p2z+Nc8iryTv3ZbILR35Gvmb8oe+8/6usUC6QFhwb6vj1urv0d/zvu/dZr1t37avhZzCa0UWRWVF09vZ26/9YPlD+Q/fdiTs6C22LT6wE7uTv3Ngl8uu+hK5kpySod0Bu1tLaaWFpe/2rNpztWxJWfVe4l7RXnG5f3n7Pr19O/dNVyRV9Fe6VTZXqVdtq/qwn7P/9gHXA03VGtVF1Z9/5P14v8a7prXWoLbsIPZg1sHnhyIO9fxE/6nhsOrhosNf6vh14vqQ+u4Gu4aGI+pHihvhRlHj2NHYo7eOeRxrbzJrqmmmNhcdB8dFx1/8HPfzwAm/E10n6SebTumfqmqhtBS2Qq1rWyfaktrE7dHtfad9T3d1OHa0/GL+S90Z7TOVZxXPFp8jnss/9+18zvnJTkHn+IXEC0Ndq7oeXYy6eLd7WXfvJb9LVy57Xb7Yw+g5f8XpypmrDldPX6Nfa7tue731hs2Nll9tfm3pte1tvWl3s/2W/a2OvqV952673L5wx+PO5bvMu9f7A/v7BsIH7t+LvSe+z7k/+iD1weuHWQ+nHm16jHlc+ET2SdlT9ae1vxn/1iy2FZ8d9Bi88Sz02aMh9tDL3zN+nx7Of05+XjaiNdIwajV6Zsxr7NaL5S+GXwpeTo0X/CH3R9Uro1en/nT988ZE1MTwa+Hrb2+2v1V5W/duybuuyeDJp+/T3k99KPyo8rH+E/1Tz+fIzyNT2dO46fIvxl86vvp9ffwt7ds3AUvIml0FUIjCCQkAvKlD9oZoACi3ACAun9ulZwWa2/9nCfwnntu3Z8UWgFpXACIRDepEGFGjTQDIIHZmHQpzBbC1tUTn997ZHX1G/M2QtTfAIiDU946qBfinzO3vf+n7nxZIsv7N/gtPdgHhKDhzHwAAAIplWElmTU0AKgAAAAgABAEaAAUAAAABAAAAPgEbAAUAAAABAAAARgEoAAMAAAABAAIAAIdpAAQAAAABAAAATgAAAAAAAACQAAAAAQAAAJAAAAABAAOShgAHAAAAEgAAAHigAgAEAAAAAQAAAdygAwAEAAAAAQAAAMAAAAAAQVNDSUkAAABTY3JlZW5zaG90vbyubQAAAAlwSFlzAAAWJQAAFiUBSVIk8AAAAdZpVFh0WE1MOmNvbS5hZG9iZS54bXAAAAAAADx4OnhtcG1ldGEgeG1sbnM6eD0iYWRvYmU6bnM6bWV0YS8iIHg6eG1wdGs9IlhNUCBDb3JlIDYuMC4wIj4KICAgPHJkZjpSREYgeG1sbnM6cmRmPSJodHRwOi8vd3d3LnczLm9yZy8xOTk5LzAyLzIyLXJkZi1zeW50YXgtbnMjIj4KICAgICAgPHJkZjpEZXNjcmlwdGlvbiByZGY6YWJvdXQ9IiIKICAgICAgICAgICAgeG1sbnM6ZXhpZj0iaHR0cDovL25zLmFkb2JlLmNvbS9leGlmLzEuMC8iPgogICAgICAgICA8ZXhpZjpQaXhlbFlEaW1lbnNpb24+MTkyPC9leGlmOlBpeGVsWURpbWVuc2lvbj4KICAgICAgICAgPGV4aWY6UGl4ZWxYRGltZW5zaW9uPjQ3NjwvZXhpZjpQaXhlbFhEaW1lbnNpb24+CiAgICAgICAgIDxleGlmOlVzZXJDb21tZW50PlNjcmVlbnNob3Q8L2V4aWY6VXNlckNvbW1lbnQ+CiAgICAgIDwvcmRmOkRlc2NyaXB0aW9uPgogICA8L3JkZjpSREY+CjwveDp4bXBtZXRhPgoGqlHGAAAAHGlET1QAAAACAAAAAAAAAGAAAAAoAAAAYAAAAGAAACT8yFpJYwAAJMhJREFUeAHsnWlwXEfVho+1j3ZbsrzItmQndhI7q50ACVsSICEhbMVeJB/7vlMsxfITfgK/oAhUQQoKPrYqtoSPNQkQAsFxVjuLbXm35UWy9l2yv/O00qrJZCTNRKPxWH67qnVnNPfe7n5v3/P2OX369KKhoaHTpiQEhIAQEAJCQAjMKwKLRLjziq9uLgSEgBAQAkIgICDCVUcQAkJACAgBIZAHBES4eQBZRQgBISAEhIAQEOGqDwgBISAEhIAQyAMCItw8gKwihIAQEAJCQAiIcNUHhIAQEAJCQAjkAQERbh5AVhFCQAgIASEgBES46gNCQAgIASEgBPKAgAg3DyCrCCEgBISAEBACIlz1ASEgBISAEBACeUBAhJsHkFWEEBACQkAICAERrvqAEBACQkAICIE8ICDCzQPIKkIICAEhIASEgAhXfUAICAEhIASEQB4QEOHmAWQVIQSEgBAQAkJAhKs+IASEgBAQAkIgDwiIcPMAsooQAkJACAgBISDCVR8QAkJACAgBIZAHBES4eQBZRQgBISAEhIAQEOGqDwgBISAEhIAQyAMCItw8gKwihIAQEAJCQAiIcNUHhIAQEAJCQAjkAQERbh5AVhFCQAgIASEgBES46gNCQAgIASEgBPKAgAg3DyCrCCEgBISAEBACIlz1ASEgBISAEBACeUBAhJsHkFWEEBACQkAICAERrvqAEBACQkAICIE8ICDCzQPIKkIICAEhIASEgAhXfUAICAEhIASEQB4QEOHmAWQVIQSEgBAQAkJAhKs+IASEgBAQAkIgDwiIcPMAsooQAkJACAgBISDCVR8QAkJACAgBIZAHBES4eQBZRQgBISAEhIAQEOGqDwgBISAEhIAQyAMCItw8gKwihIAQEAJCQAiIcNUHhIAQEAJCQAjkAQERbh5AVhFCQAgIASEgBES46gNCQAgIASEgBPKAgAg3DyCrCCEgBISAEBACGRHu6VOn7ZTnRYsW2aIiz4sEnBAQAkJACAgBIZANAhkR7sjQuA31j1lxaZFVVpdacUlRNmXoXCEgBISAEBAC5zwCGRFuX/eIdbUPunZbZFW1pVaWKLbS8mIrceIt8iyN95zvRwJACAgBISAEZkEgI8LtPDJgB3d2W+fhIes7MWJ1TRW2+qI6W7IiYbUNCStxzVdJCAgBISAEhIAQmB6BjAi3fU+P7Xqkw/Y+3G37Hu22hpUJu/CaRlu5oc6Wram2RE2Za7xFVlzsGq/P8ZrmeKdHXL8IASEgBITAOYlAVoS756Eu2+ekC6kuXp6wxa7hLm5O2Irzaqx5fa3VLCm3ispSKyoW456TvUmNFgJCQAgIgWkRyJpw9zrpDnaPmZ1eZBV1JVaztMxaNtXbhisbrXFVldU2Vlh5ZYmVlhU78bqyqwneacHXD0JACAgBIXDuIJAV4e59uMv2PtJtQ73jQYstKSuykooiq64t87ncCmtcnbClrVW2bG2NLW+tsUSVezT7/K4499zpUGqpEBACQkAIpEcgO8J1smUOd3hgPBCpnT5trNGdGPM8ctoWr6ywZedV25pNdbb2kgarX1rh87vu1VzhHs1OztJ20z8E/VcICAEhIAQWPgJzIlxmak8H0vXjxGkr9eVCieoSq64vs5rFFda0tsqaL6y1ptVV7mhVFZYSLXxI1UIhIASEgBAQAs9FYG6Em+IbdcpJ99T4ZEbzXXF+ja3dXG+rL6i3Ve7RXOlEXMb6XTczF7lHs0zNz30g+o8QEAJCQAgsTARySriu7AYTsz1zjNpu7dKE1S8rdwKuteYNtf65wqrryhWxamH2KbVKCAgBISAE0iCQU8JNvf/E2Cmf2z0V5m/LKott9cZ6W39lQ3CqavAlRQkPE8n8LtqulhKloqfvQkAICAEhsJAQmFfCxazM3C62Ywi1yh2oqn2tbsPKSluyusLX77rG62t4K13bZSlRCJqxkNBVW4SAEBACQkAIPIPAvBJuRDkQb5I3c3VjqdW7R3OLh4dcd2mDh4is8vW8TrrPxGiGeOXRHNHTUQgIASEgBBYCAnkh3DCnG72ZnXhZIoSJmZ2HqmrK3cRcacvX1/ix2ppaKp14ff1ucbFIdyH0MLVBCAgBISAEAgL5IdwUsKc0Xl+7OzF8yhqcZJs31tqqi2omN0VoqvQwkZObIkjTTQFPX4WAEBACQuCsROCMEG6yxssyovIq13Z927/KOp/j9ahV669qsItfutyq6t2TWZGqzsqOpUoLASEgBITAsxE4M4T77DrY1Ppd92qGgLfctMquu3Wt1XqkKja7j+t1cbxiR6KFshtR0PTdp2xiYrLdDC601WFK59BXISAEhMACQaAgCDeu350Y9WVEbmKGcK+9ba0lXOsdH5kI0azAu9xjM1f5VoALZQnRmLeX9g32jdpA76jV+cYPdY2JBdK11AwhIASEgBBIRqAgCDdWaNzJdnxwwjaj4TrhlvrGCAM9ozbYO2ZDPeNW08iSooRVOPGWuUczxHs2zvGODk/YmBNt/8kR6+8as+GhMRsdHrMV63zTh7V1EQ4dhYAQEAJCYAEhUNCEW1y6yPq6Rmzvti7bef9Jq19Rbs0X14SIVazhrUiUnJVzvMcP9tmxA/126PFeO7S9zxpafSDRmrDWjQ3WsnHxAupeaooQEAJCQAhEBAqacItKzHo6hu3RP7bbA788bNVNZdZ8aY21XFzve/AucfNreYjPXF7h++96jOY41xsbVyjHcZ+bHh+dsJEhz77T0qGdPXboad/qcFuP7dvWbeddvdjOJ1+x1M6/rLFQqq16CAEhIASEQA4ROCsId/vdR23r746Yub8UpFtdV2ZVHp1qxfnVtmpjnTWtqbKlq6oLNjZzT8eQ9ZwYtoNP9djBJ3ut1wcRfZ77T45af+eYrb2y3tZtqRfh5rBj61ZCQAgIgUJD4Kwg3Cf+ccweci13yLXDopJFbMPrrr2nbaVvhNByeZ2tWl9vzb4xAsuKCBFZUlp8Rk3NwevaA3wMD467RjtmJw4O2PGD/bbn4S5re/hkiC897g5TQSP3qFqtl9fbWm+HNNxCez1Un4WCwMTEhK8GmLBTp05NOWHGtuEHQi4q8pjungm6oyQE5gOBs4pwh90kW1Luaq4n9uFNVJVYpcdnrvHlQ/VNFbZyfa2t9v1365sSHjij4ox5M4840eIIdeCJHs9d1nVk2LoOD9kA3sh9YyG+9KkQZ9pcAJwW4c5Hz9Y9hUASAoODg9bX12ejo6M2Pj4+RbqRbMvKyqy8vNwqKioskUgE4k26XB+FQE4QOKsId8Q9e0t8d6GgGXrzp3YjchIuc812DbGZL1/s4SGrrXFVlVU4GQfHKl/LO59LiSB/MnO0o0Pj1nti1Ho7h63tkQ7b/VCnm4/HrL9j1Ovu62w9xxTqPybCjXjoKATmigDvIVrs0NCQ9ff3h2Mk266urkC4Y2Nj4RzKQqOFdCPZVlVVGbm6utpqa2sD+VZWVoZz5lo3XS8EzmrCndyNyONgEAvDc6Wv0WVHoiXNldawJmHN693c7GbnhP+/wrVhXqz5SJiqGDW3t/Xbkd19dnx3vx1tG/S1tSNBq8V8HEzIvowpmfhFuPPxNHTPcxkB3kO02N27d9v27dtt165d1tbWZgMDA+H/qWblKBMwI5eU+HSUZz5v2rTJNm/ebOvXr7d169YZGrCSEJgrAmc14cbGT8Vmdm1xYvS0m5jLrH55ua3x/XfXujdz/fKE1bnZmfndsH43R7sRsZaWPNDrDlDdI8GEvH9Hjx3b5XO2Tr5FrnkXVzA35HNEnlNTIRMuWgJCanh4OLXaBfUdgRmFJObA0tLSgqqfKpMfBOIcbUdHhx05csQeeeQR27p1ayDdJ598Mmi62dTkpS99qd188832ghe8IBAvfUtJCMwVgQVBuCE2s/85PeFzu+xG5ERH0IzKqrKg9S5bV2UrNlR7UAl2JKqysvLJkexcwTt5dNA6jgzawR1ddmB7t5Ouz9H2jLmjlC//8XlcSHaR+1+EUfRz+XbSJF6gJmW0hKeeesr27NkzV5jm9Xq0EUx/ixcvtlWrVtmSJUvmtTzdvDARiGbj++67z+666y7bu3evQb6Ykbu7u4PDVDY1F+Fmg5bOzRSB7Aj34W7b92iXDTuhEJQindaWacHpzkuNNBXX4UYv5dQ53HT34H+pGm9Ta5Utd8JddUGNrXKnqtrFFe7R7Bpvlut3WU+LVjrpfTxuR/f1WfveXtv3SLftdQ9knKcXEe/ZPanxpp4tFbKGiwD705/+ZP/85z9na8YZ/Z25t+bmZmtpabFLLrnEWltbz2h9VPiZQeDw4cPBjHznnXfaz372s0C2c6nJtddea7fccotdddVVdumllwZnqrncT9cKARDIinD3PNRl+5x0IRy0yEIl3FSNF1MyOxJV1/scr+eVG5x4L6q3puYqDxVZ9ax51Zm6RZ+bjftPDnvQCo8Q9XSPdbcPW8/x4eB5TPjJkJxnmSrOBJtCJtyenh777ne/G4TXTJic6d9wbmG+7fLLLze0Ej4rnXsIoNn+5je/mTIjM2CcS3r1q19tb37zmwPZXnDBBZrDnQuYunYKgYwIl1CE+91sunvbSdu9tTPENi5iF5/grDS7JjdV2iwfcqXhphYTdyNilyHq3HyBr9/dVGcr19XZco9fXOXrd4nPzE497NgTE5qyT2W6Ru/xjj13HhmyzsMDtt/Nx3sf77IhJ9mR/vFwTbEPQLJNhUy4mOK+9rWv2Xe+851sm5XX8+vq6sI82zXXXGM33nijXXHFFXktX4WdWQRwkiL/+te/tm9/+9vBQYrlP8zpziW97nWvs9tuu80uuugiW7NmjXwD5gKmrp1CICPC7XWtrsOJZtfWDtt+73HrPjYUvG7N5yhzaVqeL8L1lQLBzIzmScJjOeEEy/Z/9U3lttqdq1o21fva3XIn37Ipb+a4m89B12b37ThpHfsHrdMza2mHBkfDVoKn/L0O87RpnKImS5v+rwh3emwy/QXCfeELX2iRcNF0lc4dBCBX5mgh3Ntvv90OHTpkLPthedBcEtrt+9//fjv//PNt2bJlwTFvLvfTtUIABDIi3BFfW8oWcjgGPfWfDus4NGADHpZwZBgXfI/c4ppgSM5okdQm/5Hd3/ki3NRahG0Avd5llcVWXl1irZsW+/rdJbbiPHeqaq0OcZnR4Lvbh7ytg7Z3e6e1PdZp3YeHPY9YUZkPNGbwPk4tb7rvItzpkMn8//X19c/ScEW4mWO3EM48ceKEHTx40H7729/aHXfcYcePH5+xWdHBjuAWLPVhHS4Jr3xSXDaESfntb397cMRjUKfoUwEe/ZkjAhkR7sS4ryN1Z6FB3yqv+/hIMKuy2027rzk97POZwx5ykYTD0OSWec+vVvki3EmnqknzMvVNJEotUVFqG65ptE3XNgVNN1FdajvuOW7b/u9IWE87ODxqY2yrN+QhGWfxPs609SLcTJGa/jwR7vTYnAu/7N+/31j288c//tF+9atfWWdn54zNvuyyy+wlL3lJcLJbvnz5lKkYrRjPfJbBETSD9bc4S0HQCnwxI6T6MQsEMiLc1PsRjB/CPbCj2/a4h26vOw4ND475mtRJL97gresDR9d3+ZNxyhfhxgpFb+axgVM21n/KLr1huV31hmZb4ut2axsq7L7/3W9/+0GbmS/tKa2ZjFaViTNUvP9sRxHubAjN/rvmcGfHaCGfsXPnTtu2bZv97W9/sz/84Q9hGVC69qLNspb2la98pb31rW+1DRs2BO01rtuOhIuzFbmmpsboW1zHOu8YICPdvfU/IZApAs+LcNlAHYLt6xgJGu/Rfb12ZFevndg/YJ2HhgyNuMiXDQVtN4u5zXwTbvRmHnetlXzJdctsyy0rnXArrbaxwv71iwN29x1tdtoJt6xqMgRcNgOI2R6CCHc2hGb/HaF45ZVX2tVXX2033XRTCFIw+1U6Y6Eg8MQTT9h//vMfu+eee+wvf/mL4V2fLjU2NtrKlStDMAsIl89orskmZczKOGBhVoZko8k5npPuvvqfEMgGgedFuLGAYGr2udBj+13bfarL2nf22VEPazjgpmfmd8fH3cvXd/VBycXcPFvKO+E+U6Fx18zHfRBxybXL7IpXr7SGFZOEe/+vnHB/5IEfFp22Up/vzSXZUnQhEy6C63vf+579/Oc/n+2xPed3tAEEF4EHcGhBkMU5stSTmRtjaQ/Cjxi2aCHZOLxwDZ6kmApf9rKXaVlQKsAL/Pvjjz9uLAn6+9//bvfee++0hMs67QsvvDAQ7lve8pYQKGWBQ6PmFSACcyLcyWUzvg2dz+EO9o76ZvEj1nN0yA7v7vFlRN3uzexrVLs84pJzLctmWJIzUxLhFs4G9MxlYapDoGWTIFtIlLCQmPn++9//hnmxkZGRtLfBeQXzHpl5M4JYQNbTEXTqTTAJEl0KT1Ji3jIvp3TuIPDYY48Fsv3HP/4RgrRMp+GylhaHuhtuuMFe85rXBHPxuYOSWlooCMyJcFMbwU45Q25qJjBE20MdduKAb7zunr4EyhgdZT9Kwi/6DK8TcLq5UBFu4RAuZrWTJ08GDTX1Oc/0HcLFHMc63h/84AchGAHkiyNKuoRTCuZglvZgGkYwRrNeuvNT/4e5D4In4hT3QuNVOncQIGYymi0R0dB0e3t70zaegCjERb7++uvtVa96lQg3LUr653wjkFPCxXyMmZklRH2+bKjLtd2TRwZ8frfPDj7ZE2INj/kWdmH9bhlzos9ungi3cAg3bDfoWinOJNkmSBdzMoEICLM3E+EyB/vyl788RImCeDH7UXY2ZuWoVaPtQvZK5w4CItxz51kvhJbmlHBTAenvcROzezAfesojMz3W7ZGaBn1f2BHfnH1ylx3WpgczswtoyFeEWziEm/oss/1+7Ngx+9a3vmU/+clPZiVcPEeJXQvh5jI0I2ZpiDv1SFsiSaMhk/leSCl50EHd5qt+z7eceF3EN2LMdxL1jbgmH3ONcaESbsQjruuNuCRjET/P17OdC9bx+c5n30utH2VGvMCPBEZYsCJWqddk+537kmM5XE8bGaxTznyneSVc9oAdHXEzs4dA7O8ac+eqPjvS1mOH3bmq/em+sIxo0TOB/ovdqSo4Lw1O2OabVtl1t631DQDM54WHLdvNC7IFTU5T2SI2+/lnmnB5eTFNk1lfiaaebKrm5cJBC0/UuPRj9lbl7wyEQrQuIAwQOPOREDzggtDBOpBpOdSP66hjck4mFuodrQ7xc67JpVAJF0zod/guJE+ngDEZPGK/K0SrTHxXqFs+iIi+TZ9iSRaYgR/fY4ASsAKzuST6ZnwmlMFnEm1kGRiOm/Od5pVwUyvf6eblw3s88L/vGXvg8V4nYbRdf2GdmMMm7cM+8nCP4S0Q7v+IcFPxO5u+54tweYnIvKD9/e4h7/PFHBFyOH6RI+FyDgRDioQbSZcXm/lfXjy8pvmejbChDBx2KD+WE8mF+sWROi81wTq4f3JCwFFXBA734TPXcT6OYNSJRLvw/Oa8OEpPLod2IZhoC3PazG0nJ+rGvcGIcqg313NuU1PTVL3ieRyjcOLItWT+T525PuLLd4QkKdYDDKOwpF7gTZvItInv5NmInroyTUG51De2mS0kH3jggeDgh5Mf7UqXCNHIblJYUV784hdP4Zl6LvUHVxzxli5dGvpA6jnJ3yMmPA+ePUdyxCX2Q54lCTzAgcyz4Ts59j2OYANm5ExT7PuxvIgR5ZL5DsYNDQ1pt7CkvrSF+zAPHqeB8O5m20sS9+E3zol9Ij6H2D6eKW2gf/NcY4q4cl3EjH5EffkO5jxbsIv9i2u4B/fivaSPUn+moehf5OREHSLusYx0R86hDH4jgT/35r3k3mTawXPIdcor4RIicrh/zHo7R63XTcvtbU6+O7vtxD6PUXzQ4zP7Zu44VW15zSq7/l3rpOHm+mnn8X75IlxeSl4gBAFBEHbt2hUC2BPujzi7vMCcE3MUDAiK+NIiiHjJcNgi4zG9evXq8JKnEuN0EBLh6OGHHw77B0fCjAIBYcJLzUvMfXEOi0Is3g8hdvTo0XA9nuGELETY4HnNHDeCj8Tm6g8++KARYSmSe3I5XIPgWLt2bVgqBWkkJ+rGPcAK7ZB7sJcwS6sgI7y9SZxHfSA52kZ9yO3t7SFzHViCayR+vifjC67JGcwh9dbW1lC/8847L+DAgCJ1YJBcZz4/+uijdu8zy37AMgp66rhv376AB5ggSNMlcGDtLWVCvslkkHx+JJ4XvehF9opXvCKQR/LvqZ8jJtShra1tqi7cJ2IDPhEX8Ih9L37mSJ3oe9SPZw7h81xiO1PLTf1OvyfzbMn0Ce4b6wBmEDiDDZ5zcqJuOEjyrFnXTOY587+3ve1t9vrXvz6cTjv47emnnzbeb/pFLIfBFol20Ab6+YoVK8L/uH8kOa4jx35E7GueIcRL5j4RL67j/vQN+iWbSBAlbPPmzc8hdAriWpw1qRf3JCeXRfuiHKAMMgmcGACBN/cmwtjGjRtDG8IJOfyTV8KN9Y7rd9v39NmBJ3397q5+O+7rd1lWhNZ7xQ0r7dpb14ZNAWRSjqidXUc6+nzO4fKyIPQhWl4sCBZBQIZM+A6J8RJnkiBcHLYgHgQfgoMXHDJgdD0b8VIe+wejZVEf6pVMhAg87sMc9Zve9KbwQkMOtAHBBl7cIxIhgoM6IQAQehdffHFoBu37/e9/HwiI67hHcjloFwR54Lqbb745tIFzqA8CB0FHOWiG1BUhBfmz+cNrX/vaQIYUxAbuLOmKG7kTo5gcBTr1fj4JwoVQEMosA2NgQAZn6o1wRQCmJrD94Q9/GOqQTLg8YwYHaP0co+BPvT5q1BAZmXukS5EYeEZsXsDgJTlFQc3zAQ+whOgh2927d4cBE5hNV4/keyV/ps/R/+h3ZAiL5wIm1Hc24t26dWvQ9AlzSY5EGAkXQoFw3/nOd4YY0bSTDG70I54rewpv377dduzYEfoJv33hC1+wT3ziE6GqaKB4gt9///1Tg4tYDu2ljqyHh7DIDFx5JjHHfk4fjP0IwqXcSLjJmMTPPCv6De8jg08GDGDEEkL6NoNq6hrJlucSCZ13MbaN/j9T4n3bsmVL2AOZMmJoT96pXKUzQrhh/a5bWNB2w/rdEx6xyj2a9z1+0nY9eNIufFGjvfhNPqL3906Em6tHnd/7zDfh8pLtc60C4mBJCBoQGi3EwpEXGAERR7GztR6BBCHy0nFE4LH5ONv9QZK83DOlPXv2hB1rEEgIXEbZJIQQI3WOCA60209+8pNhTSjCAAKF2DiiLSGUEByQDloZL/573vOeIMi4H9rvT3/60yBcESoQThTGlMPAAAHN3sDvete7gpCiHK4DJ4gB4RQFFKY0iA9B9sY3vjGQH+XQju9///tBo4lmOYQbOWoinJdtQrNEgKHtgzNaJ9o7y8Kuu+66KTNubFO8P3GSv/GNbwSCSyZkBD3PmQyBgEG6BPbkaKpNvX+8JhLUu9/9bvvc5z4XTJjxN46RGP79738HjRuyhTDoc2QGIjyT6eqRfK/kzzwH8CCDDYQCCTMQQqtLbnPydfEzz5YM8ZJpH5l6kLme9n/mM5+xj3/84+H5Q0BYS8gMHGgH7w99I5pbv/SlL4VrKAeM//rXv9rdd99trH+GmGM54Mb9GbDyvlBnCIv3knN5VykjuQ+BZTQh8xyne1cpg37DoAniZbDGbk4EuoFMeQYPPfRQGGiAPTn203ikrNimiFnqMWq5EDuWAKwcDCAYEOYqnRHCTa0863SH+kdt/+PdtnNrh61cX2sXv2SZb5gwYV3Hh4LT1LY/tLsDlpvmEgTQyK1H6RlzmvK564mx09ZyeZ21XlZv6zcvtfWXN6bCc1Z+ny/CjZoto1gEC2SFoOHlz2WCtNASWbvJi42GCVFMZ4pEu/nlL38ZhFEkz3T14QX+8Ic/HAQT10CEhCbkM4IiCgWIExMXxPmxj30skD/3Q4Dd4bviQIgHDhwIAjK5HDREBDbC4tZbbw0EBsmizRIcAuEEMUXhhgaFAMN8+o53vCMIeu5HmMRvfvObQZAhFLPV2JLrNNNnNEi0WwQ0ASnQ8jBFppqY8Xb/+te/HgYzM91vrr9BGghetNsvfvGLU4QbTZEQB88XLCEeBjMMkvg9l4lBCIKeQQjPhoEJOEE+6RKhLcn/+te/ggaa7hy0UfoebUOzhAB5f3iPeF9TNUD64Je//GX77Gc/G8qFcLE0QLpcx5REcuL+DFSpO+8OAwbOoc/SVyH0XCTeCwiXd4N78kwYNDD4pm9Tz7kkBj+87wwCsfogAxiwTId9NmUVBOFOTEwSD7sRsX43UeOT2B7LeKB72DrbB237PcfswTuPOJCnrJSYxguEcCF6nMTWXFZnLZf6HOKVTbZhy7Pn3LJ5mIV07nwRLiNVNEgIlpcfskJQYLbKZULgQwZof0QnQtPkc5zjTC0LUkMLQ+hh0mNAkC4hkK71JVDcGwEBAVJ/NCMERRTcCC+0MYQKZj1G3CSE149+9KNAuFyb2m4EA4SB2RYS4zP1QeChQVMOZUQNDOGC1kAwiA984ANhIEA54Eo5OCRxLYOB+Ui0kUEM2GLOo73Xe3AKBjzJKV+Ei4aJlYPN5zGlItxJPBuE+Z133hksDAh5+jga1EyadXIbsvnM4A6NDlwgLuKEMyCZTtO91+e3yQzEIN10iWuxZDCAZNDAnC+DBTLtiIO9eC2Ey6Dj05/+dNBeGaT9+c9/DoRLv0glXAiJOpN5fmAZLSkM2nh3c5HoM5jbsQBxT/o0bcDCEAdGcymHd4Y+gLb+oQ99KGBPmQzG5poKgnCna0Rfl+8/e3zQnrjvhD3656PW74Q84fGZMTWzfjeMONIP+Ka7Zdr/503D9aq7gccdw/x4CjOPew76cqh1V/h+vFuWWMtFi61l4+QLnraiZ9E/c024EAQvEy8WGi0aBsIl15ptKsS81GiLEB5EgDNFutEuJuVkwqX96RIvcmtra5hjY+CA+XimBGl+5StfCUKS/o557sc//nHAIB3hxntBFGhICEnIIZWY43lRI77xxhvtU5/6VDAD8hvEzh6zzNdR5mz1jPd7vke8TxGiEAuaNmY9hFwkmHwRLkTBoIq9cD/4wQ9OzeHyPNEKf/GLX9gdbmHA9JqPxMAMbMAEiwXf6UOpCbIlnjTvBDldov+0et9DA6VPkGdKDIQ+//nPBxM0/YTrZyLcme51Nv4GVpjfmWoB81zM5RY04Y74kqHhoRHb+2i3Pf1AZ1i7e7SN+RFfdsAG8E5WudB280W4cTvA8REnD18CVbO83OqWlduFVzfZRVcvs7ql/t23BVwIKdeEC9miSUAyhIxE02CedDoiyRWGCJpoXn7f+94XNIR0o91MCZfRMxoAwotRP22aKUH0zKOh+THCxgSdCeFSR8phoEI505nZIDTqBOFSDvGGSXijYjpEeKPtoh3PZwJnBDwbvzNnjXbBoIG6kfJFuGj7mG/ZUei9733vFLkxZ4uZnSN4oBHmI/EcyeByyy23hPlR5kjpP8kpE8Ll/Kg50yfQDGdKPA+0249+9KOhL/EsziXCxW+DQQ6WBQYp9I25poImXEbnzB2dODgYwkOyG9HhJ/vd0coXk3tADZYRjY86+3rfo/+FTvjsfpgRPvNNuJNE+0wdXTMvryixivJSa2ittMaWhK29tMHWXbLESn2Dh9LyZ68ty6gBBXhSrgkXYoJg8aK8/fbb7a677pqx1ZATwoXM6BTygVyixkTfwoSGqRSTLuaomRIE8JGPfCQQExpH6mg3U8KdqYx0v+E0g1kPwkXw0v5MCDfdvWb6H5rlV7/61TD3xnm0B+2WuTrMh2i4lI/QBVtwjB6qqcKf6xkg8e5CTGAbBfxsc8HMWeJJyxxga2vrlHc4ntnsXoWWSaJMMiZFniFHyqDcdIm6QyDMb2NGp/4MRqJpPV7Ds0XDheBYDkO/YbDyu9/9LuAel97M1g7KIGOWpdzY9+h3lEl9Y93RllPrEesTjwyEMLkzMOJZgX0y7pkSbrxfJkfqjYaHWZW28H2+CDfiw/Ob7hlmUud054AT9+eYzf3pB294wxvCdAtzupDuXFNBE258IXCqGukf9/ld34O3c8QOPt1le3e4N+dhX+5wzBcvO8k+n/13I3jzTbgTOEd5Lk34vJznlk311nKxm4qafQnHKp/zqCuz6tqysIUhZuaFkHJNuAhtyAYCwNSJpjFTghBbXWDjEMTLwmcERtSYIALqiLMSJmrmtGZKXI+jBg4sOPbgwJKc5otwmTvGrMe8G1ogJvR8EC7en5SFpgvukA4OVtGLFiKhPpGAk4U/uDCYQYOCIJnfxnxOnk2rwoub5Uy0Gw/xaD7FrI3JlCkFEoRDxlObZ8g8M2WlzkOGk/0PVgqeGd6/DJ6odyS/eA5H+g1tpM9A+pwDIbJNJYTP3DxEORtB0kcItIEDGOWCFaRP/chx2Qr9jjl2ypkpgQMaP/PsOD5xr+Q5xfkiXAaZOFmBH4OP+SBc+k5sDwPr6awxM+Ez02+QLfenv2Rzf/o7/htMJbFigWVOc03/DwAA//9i+TyxAAApNUlEQVTtnWewXVUVx9fL6zXlhbz0DoEUIs2OBGwgCDoqNtDRQceC+oEZnXH8akVHxxk/OKLGrgQRBREsYAuiNEmABEgjPbzk9bxeXL8dF7n35pz7zm3Jy8vak517z33n7PLf+6z/XmuvvXdZX1/fmEzQMDQwIoP9I3Lsc1jKK6dIZU25HNjeLbueapPWXb1y5IVe6e0Zkr6jQzI6MiZjWpuyKcSyxLUaHhiVYc1nzboWueDKudI8p06aZtbIQ3fslgd+vEMTG5PKunL9TJYkZZBRLQu363/VteUhNmqaTc3Vsvj8abJ4zQxpnFktU2fUJEv0NLvr0KFD8s1vflN+9rOfydGjR0X7WWQNpk6dKm94wxtk3bp18qpXvUpWrVoVeV9bW5s88MAD8uCDD8q//vUv2bJlS+R95eXlUl9fL7Nnz5ZLLrlELrzwwpDmokWLpKamRiorK8Nz/f398uKLL8rWrVvlj3/8ozz66KPhuqurKzLdOXPmyOWXXy6ve93r5DWveY0sX7487b4dO3bIHXfcEcpH2ah/PqGurk7OOussAZeGhgZ52cteJu9+97tlzZo1UlVVJU899ZT85Cc/kX/84x/ywgsvSGdnZz7ZhLTJp6mpKXx/9atfLTfeeKOcffbZIb2Ojg7Zt29fiHv37pWysjJpbm6WxsbGcD9YEisqKkLk76lhYGAgtDtpbN++XZ544gl5+OGHAy5gPzIyknr7S99pf/C97LLLQp+YMWNG+NvBgwdl165dL/Uj2pn43HPPyWOPPSabNm2Sp59+Wnp7e19KK/XLggULQt3oE9S1trY2lGEsvKzH76R/gHNLS4vMnTtX6Hf79++XX/3qV7J+/fpx8eY5+soFF1wQImnQF6urq0O64EI8cOBAiE8++aQ8/vjjQv3oM5nlOV6yY98+9alPyS233BLagH5u4a9//av87W9/k3/+858h2u+5fFob086kPX36dLn22mvl6quvDv2EOvCu/PnPf5Z///vf8t///jdR8qRLPwFX+jV9DvxT+w9/mzJlihw5ciRg3traOi7WmZmTB2kTKb+976RtedH3uru7Q78mD/rh6OhoZlLhmr7H+24xTjZFPhzzY9lEJtyutn5pP9gn7Yd6w+fMBXWy8LwmGRstk4GjI9J2oF8O7+2RPVu65IWn2qW3a0iG+kZlSkWZlFfBujG1zvi52IQ7Ojx2jPwZACjxzj9vqsxf2SRzljbJXI310yqlrqlKKqp1AFGlRD4JQ7EJl/Ruv/12+cMf/hCELII8KkBYkCsvx1ve8hZ5+ctfHl5yXnAEtBEDLxmCj3QRHAiQv6rQiiNyXj7IG2GNADr//PPTsi8W4UIMl156aSDaxYsXh7rwG0IEgQSxFINwly1bFvJZvXq1LFmyJOSzcOHCQKhUbGhIB7E6SLLIbwguCAnBRlksgqnhyn0EBBkRAdfT0yMPPfSQ/OY3v5FnnnnmJdI9dmf6/5Rr7dq18sY3vjHgzKCAQDqQqRG15bl58+ZAMLQfEWEaFc4555yQLkR+xRVXhHpGkZvVCXJBSNOulPmee+4J5acu2cLrX/96ueaaawK5034m+CkvadPviNSHyICBQR8Dyb/85S8yPDycLXm56aab5GMf+1gYEECMhjt9t1DC5f14xSteEeLSpUuFtqDvzZs3L7Q75c6HcKk3A7Vp06aFgePKlSvDYIaBCe8r7yb1oO5gwTtIf6Gv5xJIi/583nnnhf7MYCeVfOm3g4ODYaBDX/z73/8e+je/RQXKy/v+2te+VmjXzHc+6pnxfpvQhAvRHtrdLXu3dMrupzuleX6tLFo5Vaa1qAbaXCMjwyo0e0dk33NdqvF2SMehPuluHVBtd1h/Hz6mYSrpou1qe8aGgglXtVj02TEdtEOwaOGVNVOkrr5SajQuWDVVFq2ZJi2LGjQ2xpZjMv2h2ISLlvXd735X7rrrLsk2+uUlQWjworz5zW8OQjYbrmjfu3fvlkceeSQQGRpCVEBgLFYBSto33HBD+Ey9L1/CRahD5pSb0T+aMxoepEN+/J4a0IjyIVwEPwKa9KjLueeeG/JhYEI+CKZSBsjwzjvvDKSIQI2zJMyfP19WrFghV155pbzrXe8KxJKtXAyWIBs0ftouLl2E/MUXXxwEJ/0CrJMENPONGzcGMsPCEqdBI+zB+Prrr5cPfOADgaTQECGbbAHNlsHjL3/5S/npT38a0o8jANJ573vfGywRNkgqhHB5lnanTxDph/RvBqkQLv0CkoKICZQrCeGSrmmV9LmZM2eGvjdr1qxAiPQ9yBDCNU2X9BkAP/vss0If37Bhg/zpT3/i59hA2cCYSHuSPu1M+gweyYO+TrtQHurBQBJZ8sMf/lDuvvvuMPjDmhMVSBMsTJZgtSg0TGjC7XixV1r3HpWtD7XK5gcOBdKsn1Yl885rVAKbLjPnN0jzvLpgDu7tHJJDL/TI/h1dsueZTtmzuVNHw2NSptpu0Hj1My4USriQLHF4QDXb/lGZubhOZi6plwUrVLNdMS2YkTEfV9dWSE1dRVwxJtXvxSZczIm33npr0HJ5MXlxogLmu7e97W0vjUh58bIF0kFrQbB++9vflvvvvz/ydl5YXkBMkjfffHMwL6femC/hUl6IAIJldI52jpAiL4S4mcAtr3wJF+GJMCUftD2IjXxMICG8ShkgWQgRLQyCxHQYFTDJUlasCO9///uD0Iy6z35LSrhoPRdddFGYvoDMwTdJQAu69957w4AM0y9aaVRAE4QEr7vuujBQIH3azggx6hl+M02XQdRtt90WpjWYJojSvrkfE+/b3/720FcYLFn6YJqrhstggD7HdAX9gk/IEauCDSBI3/JISrikC3nTlpAV7wxkyDX9DZI3CwIkaISOhstgmikIBtdM0WQLECltChFSD6ZDLH0jcvo1kTJRD7R08vjtb38bCJ0pGmRLVKANeTeZ6rrqqquChSvqvlx+m9CE29l6jHCfevCQPHrP/qC1Tqksk5alDUq6mGgbZbaaaJkXbZheJd3tA9KmWu5e1YZ3K+H2dKi22zuk88CjMqRztIQwv6vAp5qb8yXcMSV0bT8px4St5aqtrZTaukppWa6a7PJ6mX/ONJl3dlMwG1dg4j6DQjEJl5cEQvvSl74kv/jFL7KiiOD74Ac/GMzJkC2kki0g2HjRMU1+5StfCaPeqPt5YSFdXu7Pfe5zQXtOvS8p4fLyo9UiGBBCCAkEEgKP0bmZUFPTTv2elHAR9ghNNBfSJG0IF7MYeSYlnNS8C/kOPgxqMJtCYPSPqICgRjN561vfKh/+8IfDwCDqPvstKeGi9TAlgKka4Zm0/mh0aObkw6AhTvtE4NM3IHPSR+DnEtBw1+sc8c6dO4MGRp+PCm9605tC+hABZGNkmJRw6RdEm2vGR8DIlj5C/zQCzMw/KeGSBoMPBnbggQnfrDiZaaZeU2emBPBNYPCL/0e2QN9mgEMeDBYwgScJzMvTrlgs/vOf/wStOuo5+ohNI9Gm4F1oOC0I9+m/HZLH7j0gA/3Dx+Y91WRbVV0eSLZhRrUsVJPt0pfN0LlRnRxXDbK3Y0i6jgzK/m2q6T7XKa07e6RVnasgWQh7SrmO2lKcqvIlXJ4bUTKvm14p9TMqZYlq3UvXqHbSUiNTz9I5oMYqqa1ndJWeX6GNdjo8XyzCNULctm2bfPWrXw3OK9nqj4b40Y9+NMyjIVSSCFZedEa6X/ziF+V3v/tdZPIINkgXAfX5z38+EHrqjUkJFxKEaNG4mE+EADGtoVlAwoz8s4WkhEu9mXtDmDInTH7ggfkNzQChezIDRALhIuSYD40jXLQfBklYKT7+8Y+HOcRs5Sw14eIzgO8AA7Lnn38+lnAZNJlzDZ8MqnIJv//978N0CfOW9MU4wsVxDydDtK5XvvKVOROuaYCkwbwklg4iuPM3+rmReGb5kxIuA1OIikEB+TAHym/j9blcCZeB5Ec+8hF5xzveERzTIPUkwQk3BiXTcCHcx+9TwlWv5Qol2zGdux0ZHAuOUZW1U2SuapGLVupIfqHOU82tk7qpx+ZOW/cclQM7OuXQ9h45uO2oHO0clN6jgzI8pJqpxqDtKvkmJVyE/5gOPM0LugYTscZpc2plxrwaWbx6eiDdmoZj+cdU64z4uZiEi9kXYfe1r30tCL9sAJqGyzwdLyBCJElAe/nWt74VnLKy3Q/hfuELXwgmz9T7khIuhIe2hbaJcw2aUZTpODXt1O9JCRcSh2wRdmDB3DACL057Sc2jFN8hXMgRDTcb4eKZjeaC2RTT/XhTAqUmXMqKVQXHKUydcVMZ4Iz2DBEy7zfewCkTYzx/77vvvmC6xuvanMMy72PwtE49+vkkTyPHJBou92I9gGDf+c53BoyNgDPzibpOSrjUHRwwJ0PqfCYJuRIuA8jPfOYz8r73ve8Er+1s+TnhxqATR7jczpypKqxBa0Xbra7WCXR1qpq5oEYWrZohS8+fETRZHKs61ZGq88V+2fV0m+x8sl26DuuShXZdZqSm4Ap1bhoeTLYsaGQIoh8Ny5PK1cN44Spd3rN6qrQsbNR866VeiR7v4zBnXH5mmZBpitRwqgiXlxAi44WHcBHgSQKEidNKnNOUpVEo4SLwcIpCWKIJYQaDBNGek4SkhAvBIuwQzJA7BGzzWEnyKfY9pyvh4lhDv2BAxlxfHOFircC0Cdmi2aHR5RLQ/CFcTJwsUYsjXPoObUp+9B/rN0kJF9MrVhXmyBmIMQjDBJwk5EK44MA7yCCEvp4kOOEmQamE98QRLlOwBNM40VbReOubK6XprCqdO1Wv4PPU83N2rZp21Tvt/2bkvc/q8qHN7XJkX5906JKiXl27y/rdIfV0HtHlRKsvb5ELrz6+Dnfjht3y4I+2y6h6IEPM1WqurtE1tfVqxm7UGLyPV6t3X0utTJtVp6PNY+Xy/yWYDIuxDpc2zkXDxZQKKTJ/BNkmnUtjTS6ernhJZguFEi4aG0SIwMQkiAk8l5CUcDEhsywK4czcImbsQkJ41/4/3017MO8NKSAk+Vu2gGaFJzjmUjDG+xTHlaiAxsVACQ0Xk/Kp1nCZYjDCZW4xjnDROsEb0zLm1HwIF4c9CBeP+TjCRVuEwOg/5Jkr4TIYgAwhW8gwl5AL4YID/Zs5Z/pgkuCEmwSlEt4zHuGSdXjX9T9MvWiWFUquVVW6yLqyQmar89LclQ3BU3je8qmqyY5In67Vbd3XG9bv7trUITuebJP+jmEZ6hmV89/YIhdfq4Q7tz5sfLHxdt34Yv127fyjUqam53nnNob1tPOU0OctmxrW02I+rmIZkGrZHo4jcKo0XEbszEcxT5nNAeR4SY99w/MZU9N46yxPJ8JF40LY4exRKOEiDCFZlsXgRQtOrNFFCGcjXQiByEYPaIl4+rJxSXt7e2YThGsGTJQVZxjm4pkiyBZKbVKebIRLX4B06RuQbi7BCfcMcppKncON0yRN4x3BmWlgTJoX1MqsZfXqKazLc9RjuEmX5jSog9OgOl/19QzL3q2dsmtTp7QrAXcc7JdzXtEsqy6fJdNZ56u7Qj1y917554Zd6ohVGXaFmq/Lkeard/TsJY3SspiNCFyljXthTxXhxpWnWL+fLoTLPDGelYUSLsTKQIRlPLb+mbWuEC+Ei8aHNhan5UK2mMwhWNY/YlpmLjRuYMP8LUulWP6CQwzzjdmCE+6xqYikJmVzZqJvOOG6l3Lau5VEw017QC+Cxqvzu2i87DZVqXOteC7X6gYU81c16ZaK04Nj1XQ1Nw/1jYTdqXZv6ZBdampmJyscsKbOrJVGXWr0zMYX5b9/2a8asm5IcMFMXX5UJQ0zqtS0rE5R6iyVurQosxxn+rUTbvSyl5NlUi4W4WJGZU4RD2PM2ZAuBGvRTM3Z+jsmZYiZNaeQNGQbZzJ1wi2tSdkJV8IA0pcFRbyx+RBuajLsrcw2ixbmLNP1uytUO13SJLN016epYf1utRw5oDta7eqSWl3G06Rzs/VNSqgNVbJvm875PtMumKMXq4NUVY0uoj7D1tMadrl+OuGe3oSLFssuSCxRYaclCBdP3Xz3bk7af5xwnXCTrsN1L+Wkb1XC+wolXJvftewqOfxA51pxeGpQsl2ydlrQXKvrdQ5WibS8slzngPWzglgm/bpFZJ8ejFCta2nrdK72TFxPa9jl+umEe3oTLs5jmClx4kGzZftBtsGMcxrKtX/E3e+E64TrhBv3dpT490IJN7N4o2FZj+51rGt3q5RE5y1vkoW6fnembg85XdfShh2rlIwhXJ+fzUQvt+tTRbjMGbIO0LxEuS5GwHSKcxDrZj/72c+eMP+VdB3uRDcp4xiFAxl7H3NCDmtCEYBxc67FwDY1DSdcJ1wn3NQ34iR+Lzbh2vwuc684XlWqRos38wx1rjprSa2u3W2WZRc0hz2Pwyk+7hOVd2ufKsKFaFlWgrdrLl7K41WUOUe8NFlu9MlPfjLvvZQnOuGixeIgxek1bPCOGTn1lJ7xcCr07064TrhOuIW+RXk+X2zCtWKEwwZ0ate8mRvUGapR1+uufO0sWbtutnok1+g8btVLu7jYc/6ZHIFTRbgQLQv72VCCpUG57vgTV0O0W8ypeNCypAJNNzVMFg0XsqUu7HzEXrZ4FGcL4G2b3eONbDsf2TNcExms2JIiTmeJM0074TrhOuHa23OSP0tFuFTDtF28mSFg0bMNVr2uRdZeOVt3jmKLyAY3KxfQ3qeKcNnJiWPd2HMWIki6teN4VTWTMgRu+x6nPjNZCJcNKlgry/wthwzs2bMntZonfEfjZ/cj9m1mk5HMrSMx6RNtWRDnv3JQfNwxek64TrhOuCe8Zifnh1ISbmoN2GlquHdUVl42Sy68ao6eQKQnuSxoDFtDpt7n35MjcKoIF5Mt6zfZuo7tDBHgJyNMFsJlz2rIlh2hiHgqRwXboIJlJrYJPhv2xxEuG19wAAVzwxx5F3c830QjXLZ2RNNn0w7WEMdp5myziOWDbTTz2dqRPaY5KIFdprLtpczghrwsmo8CbTbe8XxYGnxZkC8Linqfw28ni3CH+3UXHV2Tu3pdi1wA4S7WvZH1rF13nIptmnH/cCoJ96abbgqEi7brhJvbTlNonwh+lgKx/vbw4cORbW2aLdv3QTJYEzLJ1h5E0LPpBfPBEEO2wwsmGuFSVo7OA5dshxdAhHZ4AXjkOpXBulBODIJs2cwjbp0yRLtOt3Rke0ci2BKccBvCFJL1uWyffnhBDDonjXB1Z6phPS93DYR75VyZrWt0m51wY1ol2c/FJFyED9oR59XiOZstsDPRjTfeGPa1ZZ9iiOBkhMmi4bLfMYdzQ7h8j9uCkR23OLOWvX35Pt7ABsKFtJgb/vWvfx22eoxql4lGuEnPw8VvgD2KIV1i0j28DQMOW2fPZvo5mjQ+A1GB4+7Yn5i8iE64flpQVD/J6zcn3LxgmxAPFYtwqQzzpxAa59WOdwA9ZmSOHkMosYE/c4snI0wWwkW7ghDZ7xiCxMEpKmA25RxSNFxwxsScLbCOd+vWreHgb8hl//79kbdPNMLF/I3miamXzT/YLSsq0M8WL14c/AduuOGGxNqWpfWd73xHvv71r4e5bXbjos9HBaZKGOgwyIHknXCdcKP6SV6/OeHmBduEeKiYhEuFcKTgvNoNGzaEDRjiBB/nzaJ1YeLDcQpvYnPcyQUYNAzWpOJdy7pUBCCnD8UdLD5ZCJdNLu6880556KGHwi5TcYTLCUQcEs8RbBz5Np6GizMWaXMM3V133RU7NzzRCBcTL3PZEC9zpHhaRwUOzKDsYML5rBAwy9NsjjXzGXPCY6tMTqr68Y9/LN/73vdCf8u8N/Uah8D3vOc9cvbZZ4czjp1wnXBT+0dB351wC4LvlD5cbMJFI0IocXoL5sm4493MixgS+NCHPhQcevgt6ZmfBhpky5pUtjIkLwTkkiVLpLm52W5J+5wshIsZGYwhXAiS+a6oAL6YTplHxLQZh4s9izPWww8/HOYasx3PN9EIF69qtrfEYxtTe9wGIPQvIvOrWFewAKCFcnpVVKB/EdnJC/M95zBD6vyWLdCncQrEksPWhk64TrjZ+ktOf3PCzQmuCXVzsQkX5x2EHnOAmPaY64oKaBQIORymOJ8UkyfzuAhyNsXgb9yDoGJuGE2WT7xP0WbRnO0kHIQry1eYx0SDQWPmUAB7PjX/yUK4ODZBiBAAHsVxAxuOzYN0wRdHHvAGX8PVsOzu7g6kDT54+kJexNNlWRD9mAHe7bffLj/60Y/G3Ut6xYoVsmrVqmBmp69gascyQr8j0s+I1J/IoIYIPrv0gPu4uVvInOc5svDmm28O/ZE+acGdptxpyvpC3p9OuHlDd8ofLDbhIpww76F53XfffcGDNq6SECJaLSY9iIA5RubXIF3W5RrpIvgwFxNthyWInbKj2UG+RLQOTHif+MQnAuki/DI9cicL4TKQMW0LIc5ynqiAab2uri4sM+GYt6VLlwYSAHtwNcsA6UHipMPABQIG6zhNbqJpuMynMgBj161vfOMbsXPahhGYsOGKfTIwYaka/Y7fqTsDOUgcM7udLWx9LW7u1tJkl7NPf/rTYXCT2gedcJ1wrQ/m/emEmzd0p/zBYhMuAsnmATEto+kmCQgqyBYTHEIPQQjhookh9CEHtDEEK/OVRNaIQgz8bsszmAu+5ZZbwhmzeKDaXs1WhslCuDg3oXGxtSOmZTDPFsAW0ykDG7A2woVYGLRALCyngVjAOk6DszwmGuHS/kTmtSFd6kLfjhswWD3sc9asWaHvgQ39xgicNIjj4WHpMOBDe8ZR7frrrz9hbtgJ1wnX+kren064eUN3yh8sNuEimCBd5gJvvfXW4EmbpJJoAWhjECTfiTbvhTZhziukj2A1EubT/k4+aMmY8tjcAFKAuFPDZCFctFB2l2JAs379+oB3aj0zv4MtJlPDF2zBDfyINpjhexJymWiEa32ANcnMsdqGIBBnkgAumdiAA7gQST9JwDv52muvlbVr16Z5J9uzTrhOuNYX8v50ws0bulP+YLEJ1yqEafLnP/95mM+F5OJ2QrL7i/WJhoHDCo5CrPWFGFLDZCFc0/TRcL///e+H+VZMqhDmyQgTjXCtzmjqtLHtCIUTH4OTJIMISyOfT/wPcI5iKRAe0OzlzW82aLQ0nXCdcK0v5P3phJs3dKf8wVIRLvNfnNXKukjWizLfeDICplOWZFxxxRXBcQrBlxomC+FCIJArnrOYUNHsGNQk1ehSMcnn+0QlXOb5sbCwNAjnPczuzE2jpZYyXHLJJS85pl122WXBNwGNOTM44TrhZvaJnK87W/vk8P6jsvmBg/LYPfvVuWVEKvWw+LIpnECSc3KxDwz7TlOx2OT7BwiXhfzMtyKo4gQTXpzsxbtOl1OwfhYPz2wBMmA+EI9O24IQbYO1jJACgrGYAU0CMzSEe91114VyUkbmhFMDc3usEWadKQMCyhMVcKCBtBGerGFlN6xcAhtTYOrFtInWFefti4fsVVddJZdemtvWjlYWNqmgLhAvy3moDyb3pCZQS4f5cluqxTwv7UPfoNzM85JmasiHcNHGGXgR4/Bg/pN9hLFQ4L0+3kYdqWVK/Y6nNV7ytAOROW7mvYtlAaCvMQ/OOl4sKSy5whOcrTSJmZqtlQ3CJYIBbRYVeJb10xdddFHAgOmRXALv8P333x+82FnOxKAjKjAgoNxscYlDHX0wSWCwh+/EyTi8AMdL+jcDd5Z+RQX6CHjxnmLSB7dCQ5kKqWSTCIXmlMfznYch3F7Z/KcD8u876dQjUtGg83CVSrhKusUKTrjFQvJ4Oph+v/zlL8sPfvCDYHaLE9R0aiMgNqvIPPbueIrHvpEOwg1hDekiABG4aGLkGbdRQ2Y6Sa8RgAgQvHAx60GUkFmmhos3Lnvu8hIzzxy3BzGEy/IiltJQ31wJl5N8brvttiBYqW/cutBCCRfBB8lSHzRdCBiBm0mQ4+HI/C6bkSC4aGfMsOxiBV4MlBiMpYZ8CJcyGtHEES5khXMXa2SvueaavAkX8zp9DzxYs4zGy3x3sSwA9DUGKGBFWWlHBgs4XGX6DaTixjtAhGzx5I8KEC4Y0BYQCAOPXALtD1FBurxv1D8qUAc0cyNc+nqScDIJFysF0wOsfOB9jQrIJubMIVz6DGurCw0TmnB7uwalp2NAdjzeLs9uPCwdqvF29wzIkB40MDQwFrTcsnKFQDuS/ss7OOHmDV3sg3j6ot2yLV62gPcmQoBo59hmu9/+ZqQL6aBxsA0h3yE6SAjBaGZAvGOJPGOEgfBB+7INC0zQ2SfOQBYRdGi0jHARfmgfmRoSjkasX4UQIZI4wc/8G3XlRSZmaspWv7hPtGdOsEG7gLwyCcueYzkKAo88ENqQXi4BnMBs8+bNQcBCMGDLgCYVXwZAaGS2TtSIAcyI5IunLmVAYNEv0CowwdNemeU3gmZDDZyEwCtbAA+EJsIfEy/tHhXQFpcvXx6IgIEO+RQSMLPT5vQ96mO4QLxmaaFuqf0OTK2/GV6QK32O94CIJz3ra8EKLTFuzjaz7GAACYIB70JcAAP8EcAAzTmXQF2wdrA+G62QNowK1I32xtGQPkh/TxIgXNoPCwjrntnHmveU/pUa6HNE+hbTPAxM6Gu8r0kCFjIGfWBGPbBQRAXaA7xWrlwZrG/Up9AwoQl3dGRMRoZHpau1X9oO9smOTW3y/GOHpf1Av/S06tyJkmx5tTZIeWEarxNuod3oxOfRAkwAnPjX478gbBAqEA8kMZ6AtSd54RBgjLp5SXmJIAS0MkytCESEO0tTIAg0Nu7jfgKaKy8pLxWfJuh5iVm/S2T3JK75m0VbEoRQSQ2QH8KOvKl7nGmb/Ky+aLuZxJ2aZtR36sfGEZAVgh0hGBXQFMETMy5ON+SbSzChRl0gE0ynJmQx+SEU+Z02MCwhC9qPtqSO5GuR8lAGS4t60D7WHlY2CAiMsSgg6EgzW6Acu9TSwSdpZsOD9gRzdgwjn0IC5aaNwYf+xSCLtqcMlIV+Z33P+gPPQArgQKSe9C+wYRBnbcUABdKlz/F+MDAcL9AmRNsqMup+yIuznMEBDBbrNEkugbYGayJtR4wK9AfyoR7kwWAnSaDPgRHvKmTIYAqyJb3MQFloQ6YJIPekOJEO7w11YMCEzEB2RAXSpB70YfDis9AwoQnXKjeoJ/kM9A3JgR09smdLh7Tt7ZU2SLdtQLpVAx4eGhXIGTMz5JtrcMLNFbHx70fwIYTo0NmCCWuEiwmZbPfH/Q3tFcFnxIsw4LsRLS+ZaRykQb6mwfLiQroIdysHZYEMuUYwjif0SB9hR54IA2JUIB3Li/STjsotLYQ3+VAv6oxWEBWoE3WgTgh3hEchgQEFAoo2hVC4pgzUk8EH+RmBINBt0AKZUE/Dj/Kj/fMsmFGH1EC7kB5EBHmPV27SgcRJl/aNw93KR3mIUUI8tRy5fodcwYWygA11pC9QJiJEwjtBOWhzKw/9i0hdEe5GwJBjLsHyBVNiVCBN8qb/kU+ugz0IMTUf6hUVIEnLx9o/6r7M32wQzUDGrFW0U6aGy3O0M39jcAdufE/apvQ56kH7pA7CM8tDevRp3h/qQTsVGk4Lwh0bHVPBoqMfJV5iu2q7R/b1yK5N7bLtMdVgOnTzgt5hmVKhDi7VrLPMDRYn3NzwSnK3jVbjNA5Lw0xG9sIkfWnsefu0l5UXkTz55MXiE1KyyH0E8rW8eaFtJE3+fEfoW5m45t5sgfQtX/KwfDKfIR1L1/LKvCfbdWq9suWTWh/yGa/82fLkb2CJIOQT8jBs7TnyM9zAziJ5893yByd7lu+ZOHEfkWcgaXvO8sn8NDwy2zfzPitfZnky78v3mjrR/la31HJRR6urlYN68Z3yWKS+hluu5SBfouEQ93xqnuSVa0iSj9WNvMiD+iUN1qdtgBLX/tzH31I127h7M/PmWWunbHhZPax9cqlHZp52fVoQrhXWPo926txue78c2K5bpD3bKW37dZegQ31KvGpe7GI3m2ONUaam/yTOVU64hqx/OgKOgCPgCJQKgdOScG1uF213SOO+7V2ye2ub7H5KPzd1yPDgqJSpaTlovBWwbnb4nHCz4+N/dQQcAUfAESgcgdOScDOr3X5QPdv29sjBbd1y8Pke9Wbul+62funrHpb+Hp0jUsKFfNUGwb8TghPuCZD4D46AI+AIOAJFRmBSEC5OU8ODI4FcWUr0wpYO2fFkmxx8rlsObT+qbCtSUatzTDHezE64Re5Vnpwj4Ag4Ao7ACQhMCsK1WrGEaETJ98XdR9WjuUsO7eyR1p290qXaLt7Mg7p+N5ib8WZG4/1/cMI1JPzTEXAEHAFHoFQITCrCVeczUbdHGdI53CHdBhKzcucR3TjjiSPy3CO63urQgPQcHpQplXpIuWq8NrfrhFuq7uXpOgKOgCPgCBgCk4pwrVL2OdCnc7i9un5XvZn3qTfzkX29ummG7lalJNytHs1oxGO6jBGteERJes26Frngyrkye1GDNM9vULf941qwpemfjoAj4Ag4Ao5APghMasK19btou4Maj+iGGa17umXbE+3y/KO6y02vblAA6Q7rOjmNay53ws2nE/kzjoAj4Ag4AuMjMKkJN7P6zON2H2b9brfse75LN9BQk7Puz9yxv1869vXL6ita5OJr5kjLEt2ibn5jXrtWZebp146AI+AIOAKOAAicUYRr63eHBnSOV72a92ztkJ1PHZEdD3fIto1tsvoNLfLyd8yVOcsaZdbCJidcf0ccAUfAEXAEiobAGUW4magd0bN2D+7ulr2bu2Tvpi6Zc26jLLl4mmq39TJjTr3P4WYC5teOgCPgCDgCeSNwRhOurd/lEITOwwNSrkuFKmqmSOMM3fh9ek2ibSHzRt4fdAQcAUfAETijEDijCddaerBfN2bXyB7Mol7LVbUVUlPHxul2h386Ao6AI+AIOAKFIeCEq/iFEyqUaMM5MpxCwcYYviSosJ7lTzsCjoAj4AikIeCEmwaHXzgCjoAj4Ag4AqVBwAm3NLh6qo6AI+AIOAKOQBoCTrhpcPiFI+AIOAKOgCNQGgSccEuDq6fqCDgCjoAj4AikIeCEmwaHXzgCjoAj4Ag4AqVBwAm3NLh6qo6AI+AIOAKOQBoCTrhpcPiFI+AIOAKOgCNQGgSccEuDq6fqCDgCjoAj4AikIeCEmwaHXzgCjoAj4Ag4AqVBwAm3NLh6qo6AI+AIOAKOQBoCTrhpcPiFI+AIOAKOgCNQGgSccEuDq6fqCDgCjoAj4AikIeCEmwaHXzgCjoAj4Ag4AqVBwAm3NLh6qo6AI+AIOAKOQBoCTrhpcPiFI+AIOAKOgCNQGgSccEuDq6fqCDgCjoAj4AikIeCEmwaHXzgCjoAj4Ag4AqVBwAm3NLh6qo6AI+AIOAKOQBoCTrhpcPiFI+AIOAKOgCNQGgSccEuDq6fqCDgCjoAj4AikIeCEmwaHXzgCjoAj4Ag4AqVBwAm3NLh6qo6AI+AIOAKOQBoCTrhpcPiFI+AIOAKOgCNQGgSccEuDq6fqCDgCjoAj4AikIeCEmwaHXzgCjoAj4Ag4AqVBwAm3NLh6qo6AI+AIOAKOQBoCTrhpcPiFI+AIOAKOgCNQGgSccEuDq6fqCDgCjoAj4AikIeCEmwaHXzgCjoAj4Ag4AqVBwAm3NLh6qo6AI+AIOAKOQBoCTrhpcPiFI+AIOAKOgCNQGgSccEuDq6fqCDgCjoAj4AikIeCEmwaHXzgCjoAj4Ag4AqVBwAm3NLh6qo6AI+AIOAKOQBoCTrhpcPiFI+AIOAKOgCNQGgSccEuDq6fqCDgCjoAj4AikIeCEmwaHXzgCjoAj4Ag4AqVBwAm3NLh6qo6AI+AIOAKOQBoCTrhpcPiFI+AIOAKOgCNQGgSccEuDq6fqCDgCjoAj4AikIeCEmwaHXzgCjoAj4Ag4AqVBwAm3NLh6qo6AI+AIOAKOQBoCTrhpcPiFI+AIOAKOgCNQGgSccEuDq6fqCDgCjoAj4AikIeCEmwaHXzgCjoAj4Ag4AqVBwAm3NLh6qo6AI+AIOAKOQBoC/wPhHMFUXZmJ5AAAAABJRU5ErkJggg==;" vertex="1" parent="1">
          <mxGeometry x="100" y="401.38" width="106" height="42.76" as="geometry" />
        </mxCell>
        <mxCell id="SraO-4PZSHpIVf2TnJLi-18" style="edgeStyle=orthogonalEdgeStyle;curved=1;rounded=0;orthogonalLoop=1;jettySize=auto;html=1;exitX=0;exitY=0.5;exitDx=0;exitDy=0;endArrow=none;endFill=0;" edge="1" parent="1" source="SraO-4PZSHpIVf2TnJLi-17" target="SraO-4PZSHpIVf2TnJLi-5">
          <mxGeometry relative="1" as="geometry" />
        </mxCell>
        <mxCell id="SraO-4PZSHpIVf2TnJLi-23" style="edgeStyle=orthogonalEdgeStyle;curved=1;rounded=0;orthogonalLoop=1;jettySize=auto;html=1;exitX=0.25;exitY=0;exitDx=0;exitDy=0;entryX=0.519;entryY=0.889;entryDx=0;entryDy=0;entryPerimeter=0;" edge="1" parent="1" source="SraO-4PZSHpIVf2TnJLi-17" target="SraO-4PZSHpIVf2TnJLi-4">
          <mxGeometry relative="1" as="geometry" />
        </mxCell>
        <mxCell id="SraO-4PZSHpIVf2TnJLi-24" style="edgeStyle=orthogonalEdgeStyle;curved=1;rounded=0;orthogonalLoop=1;jettySize=auto;html=1;exitX=0.75;exitY=0;exitDx=0;exitDy=0;entryX=0.5;entryY=1;entryDx=0;entryDy=0;" edge="1" parent="1" source="SraO-4PZSHpIVf2TnJLi-17" target="SraO-4PZSHpIVf2TnJLi-2">
          <mxGeometry relative="1" as="geometry" />
        </mxCell>
        <mxCell id="SraO-4PZSHpIVf2TnJLi-17" value="IaC Pipeline" style="rounded=1;whiteSpace=wrap;html=1;" vertex="1" parent="1">
          <mxGeometry x="160" y="328.13" width="120" height="60" as="geometry" />
        </mxCell>
        <mxCell id="SraO-4PZSHpIVf2TnJLi-21" style="edgeStyle=orthogonalEdgeStyle;curved=1;rounded=0;orthogonalLoop=1;jettySize=auto;html=1;exitX=0.5;exitY=0;exitDx=0;exitDy=0;entryX=0.75;entryY=1;entryDx=0;entryDy=0;endArrow=none;endFill=0;" edge="1" parent="1" source="SraO-4PZSHpIVf2TnJLi-19" target="SraO-4PZSHpIVf2TnJLi-17">
          <mxGeometry relative="1" as="geometry" />
        </mxCell>
        <mxCell id="SraO-4PZSHpIVf2TnJLi-19" value="" style="shape=image;verticalLabelPosition=bottom;labelBackgroundColor=default;verticalAlign=top;aspect=fixed;imageAspect=0;image=data:image/png,iVBORw0KGgoAAAANSUhEUgAAAaAAAADACAYAAABCtbe3AAAKpWlDQ1BJQ0MgUHJvZmlsZQAASImVlgdQk9kWgO//p4eEFggdQm+CFIEAUkIPXTqISkgChBJDIKCIDVlcwRVFRASUBV0BUXBViqwFEcW2KCrY3SCLgLIuFmygvh8Ywu6+ee/NOzMn55uTc0+589+ZAwCZxBIIUmFZANL4mcIQbzdaVHQMDTcCsEARSAMTIMtiZwgYwcH+AJF5+3d5PwCgGXvHbCbXv///X0WOw81gAwAFIxzPyWCnIXwK0edsgTATAFQV4tfNzhTMcCfCCkKkQYTvznDiHI/OcPwcT8/GhIW4A4BGpsKTWCxhIgAkdcRPy2InInlISxG24HN4fIRn+nVOS1vNQfgowkZIjADhmfz0+L/kSfxbznhJThYrUcJzs8wK3oOXIUhlrf0/r+N/S1qqaL6GAaKkJKFPCGKlkTu7n7LaT8L8+MCgeeZxZuNnOUnkEz7P7Az3mHnmsDz8JGdTA/3nOYHnxZTkyWSGzTM3wzN0noWrQyS1EoTujHlmCRfqilLCJf4kLlOSPycpLHKes3gRgfOckRLqtxDjLvELRSGS/rl8b7eFul6S2dMy/jIvjyk5m5kU5iOZnbXQP5fPWMiZESXpjcP18FyICZfECzLdJLUEqcGSeG6qt8SfkRUqOZuJfJALZ4Mld5jM8g2eZxAOrAAdeAIbYA8sAMjkrsmcGcJ9tWCtkJeYlEljIK+LS2Py2eaLaFYWVtYAzLzVuU/hLXX2DULUawu+lGcA2DsCAL9d8MUhc7bEAkA2XfCZVCPPkAfARRm2SJg150PP/GAAEcgABaACNIEuMAJmSIe2wBG4Il36giAQBqLBSsAGSSANCEE2yAWbQQEoAjvBHlABqsFBUA+OgROgDZwBF8BlcB3cAv3gERCDYfASTID3YAqCIBxEhiiQCqQF6UOmkBVEh5whT8gfCoGioTgoEeJDIigX2gIVQSVQBVQDNUA/Q6ehC9BVqA96AA1CY9Ab6DOMgkmwAqwBG8CLYTrMgP3gMHgFnAinwzlwPrwDLodr4aNwK3wBvg73w2L4JTyJAigpFBWljTJD0VHuqCBUDCoBJURtQBWiylC1qCZUB6oHdQclRo2jPqGxaAqahjZDO6J90OFoNjodvQG9HV2Brke3orvRd9CD6An0VwwZo44xxThgmJgoTCImG1OAKcMcxrRgLmH6McOY91gsloo1xNphfbDR2GTsOux27H5sM7YT24cdwk7icDgVnCnOCReEY+EycQW4fbijuPO427hh3Ee8FF4Lb4X3wsfg+fg8fBn+CP4c/jZ+BD9FkCXoExwIQQQOYS2hmHCI0EG4SRgmTBHliIZEJ2IYMZm4mVhObCJeIj4mvpWSktKRspdaJsWT2iRVLnVc6orUoNQnkjzJhOROiiWJSDtIdaRO0gPSWzKZbEB2JceQM8k7yA3ki+Sn5I/SFGlzaaY0R3qjdKV0q/Rt6VcyBBl9GYbMSpkcmTKZkzI3ZcZlCbIGsu6yLNkNspWyp2XvyU7KUeQs5YLk0uS2yx2Ruyo3Ko+TN5D3lOfI58sflL8oP0RBUXQp7hQ2ZQvlEOUSZVgBq2CowFRIVihSOKbQqzChKK+4RDFCcY1ipeJZRTEVRTWgMqmp1GLqCeoA9bOShhJDiau0TalJ6bbSB2U1ZVdlrnKhcrNyv/JnFZqKp0qKyi6VNpUnqmhVE9VlqtmqB1QvqY6rKag5qrHVCtVOqD1Uh9VN1EPU16kfVL+hPqmhqeGtIdDYp3FRY1yTqumqmaxZqnlOc0yLouWsxdMq1Tqv9YKmSGPQUmnltG7ahLa6to+2SLtGu1d7SsdQJ1wnT6dZ54kuUZeum6BbqtulO6GnpRegl6vXqPdQn6BP10/S36vfo//BwNAg0mCrQZvBqKGyIdMwx7DR8LER2cjFKN2o1uiuMdaYbpxivN/4lglsYmOSZFJpctMUNrU15ZnuN+1bhFlkv4i/qHbRPTOSGcMsy6zRbNCcau5vnmfeZv5qsd7imMW7Fvcs/mphY5FqccjikaW8pa9lnmWH5RsrEyu2VaXVXWuytZf1Rut269dLTJdwlxxYct+GYhNgs9Wmy+aLrZ2t0LbJdsxOzy7OrsruHl2BHkzfTr9ij7F3s99of8b+k4OtQ6bDCYc/Hc0cUxyPOI4uNVzKXXpo6ZCTjhPLqcZJ7ExzjnP+0Vnsou3Ccql1eeaq68pxPew6wjBmJDOOMl65WbgJ3VrcPrg7uK937/RAeXh7FHr0esp7hntWeD710vFK9Gr0mvC28V7n3emD8fHz2eVzj6nBZDMbmBO+dr7rfbv9SH6hfhV+z/xN/IX+HQFwgG/A7oDHgfqB/MC2IBDEDNod9CTYMDg9+Jdl2GXByyqXPQ+xDMkN6QmlhK4KPRL6PswtrDjsUbhRuCi8K0ImIjaiIeJDpEdkSaQ4anHU+qjr0arRvOj2GFxMRMzhmMnlnsv3LB+OtYktiB1YYbhizYqrK1VXpq48u0pmFWvVyThMXGTckbhpVhCrljUZz4yvip9gu7P3sl9yXDmlnDGuE7eEO5LglFCSMJrolLg7cSzJJaksaZznzqvgvU72Sa5O/pASlFKX8i01MrU5DZ8Wl3aaL89P4Xev1ly9ZnWfwFRQIBCnO6TvSZ8Q+gkPZ0AZKzLaMxWQpeiGyEj0nWgwyzmrMutjdkT2yTVya/hrbqw1Wbtt7UiOV85P69Dr2Ou6crVzN+cOrmesr9kAbYjf0LVRd2P+xuFN3pvqNxM3p2z+Nc8iryTv3ZbILR35Gvmb8oe+8/6usUC6QFhwb6vj1urv0d/zvu/dZr1t37avhZzCa0UWRWVF09vZ26/9YPlD+Q/fdiTs6C22LT6wE7uTv3Ngl8uu+hK5kpySod0Bu1tLaaWFpe/2rNpztWxJWfVe4l7RXnG5f3n7Pr19O/dNVyRV9Fe6VTZXqVdtq/qwn7P/9gHXA03VGtVF1Z9/5P14v8a7prXWoLbsIPZg1sHnhyIO9fxE/6nhsOrhosNf6vh14vqQ+u4Gu4aGI+pHihvhRlHj2NHYo7eOeRxrbzJrqmmmNhcdB8dFx1/8HPfzwAm/E10n6SebTumfqmqhtBS2Qq1rWyfaktrE7dHtfad9T3d1OHa0/GL+S90Z7TOVZxXPFp8jnss/9+18zvnJTkHn+IXEC0Ndq7oeXYy6eLd7WXfvJb9LVy57Xb7Yw+g5f8XpypmrDldPX6Nfa7tue731hs2Nll9tfm3pte1tvWl3s/2W/a2OvqV952673L5wx+PO5bvMu9f7A/v7BsIH7t+LvSe+z7k/+iD1weuHWQ+nHm16jHlc+ET2SdlT9ae1vxn/1iy2FZ8d9Bi88Sz02aMh9tDL3zN+nx7Of05+XjaiNdIwajV6Zsxr7NaL5S+GXwpeTo0X/CH3R9Uro1en/nT988ZE1MTwa+Hrb2+2v1V5W/duybuuyeDJp+/T3k99KPyo8rH+E/1Tz+fIzyNT2dO46fIvxl86vvp9ffwt7ds3AUvIml0FUIjCCQkAvKlD9oZoACi3ACAun9ulZwWa2/9nCfwnntu3Z8UWgFpXACIRDepEGFGjTQDIIHZmHQpzBbC1tUTn997ZHX1G/M2QtTfAIiDU946qBfinzO3vf+n7nxZIsv7N/gtPdgHhKDhzHwAAAIplWElmTU0AKgAAAAgABAEaAAUAAAABAAAAPgEbAAUAAAABAAAARgEoAAMAAAABAAIAAIdpAAQAAAABAAAATgAAAAAAAACQAAAAAQAAAJAAAAABAAOShgAHAAAAEgAAAHigAgAEAAAAAQAAAaCgAwAEAAAAAQAAAMAAAAAAQVNDSUkAAABTY3JlZW5zaG90y/WHegAAAAlwSFlzAAAWJQAAFiUBSVIk8AAAAdZpVFh0WE1MOmNvbS5hZG9iZS54bXAAAAAAADx4OnhtcG1ldGEgeG1sbnM6eD0iYWRvYmU6bnM6bWV0YS8iIHg6eG1wdGs9IlhNUCBDb3JlIDYuMC4wIj4KICAgPHJkZjpSREYgeG1sbnM6cmRmPSJodHRwOi8vd3d3LnczLm9yZy8xOTk5LzAyLzIyLXJkZi1zeW50YXgtbnMjIj4KICAgICAgPHJkZjpEZXNjcmlwdGlvbiByZGY6YWJvdXQ9IiIKICAgICAgICAgICAgeG1sbnM6ZXhpZj0iaHR0cDovL25zLmFkb2JlLmNvbS9leGlmLzEuMC8iPgogICAgICAgICA8ZXhpZjpQaXhlbFlEaW1lbnNpb24+MTkyPC9leGlmOlBpeGVsWURpbWVuc2lvbj4KICAgICAgICAgPGV4aWY6UGl4ZWxYRGltZW5zaW9uPjQxNjwvZXhpZjpQaXhlbFhEaW1lbnNpb24+CiAgICAgICAgIDxleGlmOlVzZXJDb21tZW50PlNjcmVlbnNob3Q8L2V4aWY6VXNlckNvbW1lbnQ+CiAgICAgIDwvcmRmOkRlc2NyaXB0aW9uPgogICA8L3JkZjpSREY+CjwveDp4bXBtZXRhPgpT3orRAAAAHGlET1QAAAACAAAAAAAAAGAAAAAoAAAAYAAAAGAAACsht6D7xQAAKu1JREFUeAHsnflzXEfV/s+VZG2WbMmSd8uW7Nixkzj7HhIKQkiAUKwBiqWKKviF31iq+GO+9eV9i6IKCIQiLGEpyAbZE2ePEzuO9323JUuWJc28z6dnWrkej2a0jDTJ+HT5ehbN3O77TN9++pzz9OlkaGgoa14cAUfAEXAEHIE5RiBxAppjxL06R8ARcAQcgYCAE5B3BEfAEXAEHIGqIOAEVBXYvVJHwBFwBBwBJyDvA46AI+AIOAJVQcAJqCqwe6WOgCPgCDgCTkDeBxwBR8ARcASqgoATUFVg90odAUfAEXAEnIC8DzgCjoAj4AhUBQEnoKrA7pU6Ao6AI+AIOAF5H3AEHAFHwBGoCgJOQFWB3St1BBwBR8ARcALyPuAIOAKOgCNQFQScgKoCu1fqCDgCjoAj4ATkfcARcAQcAUegKgg4AVUFdq/UEXAEHAFHwAnI+4Aj4Ag4Ao5AVRBwAqoK7F6pI+AIOAKOgBOQ9wFHwBFwBByBqiDgBFQV2L1SR8ARcAQcAScg7wOOgCPgCDgCVUHACagqsHuljoAj4Ag4Ak5A3gccAUfAEXAEqoKAE1BVYPdKHQFHwBFwBJyAvA84Ao6AI+AIVAUBJ6CqwO6VOgKOgCPgCDgBeR9wBBwBR8ARqAoCTkBVgd0rdQQcAUfAEXAC8j7gCDgCjoAjUBUEnICqArtX6gg4Ao6AI+AE5H3AEXAEHAFHoCoIOAFVBXav1BFwBBwBR8AJyPuAI+AIOAKOQFUQcAKqCuxeqSPgCDgCjoATkPcBR8ARcAQcgaog4ARUFdi9UkfAEXAEHAEnIO8DjoAj4Ag4AlVBwAmoKrB7pY6AI+AIOAJOQN4HHAFHwBFwBKqCgBNQVWD3Sh0BR8ARcAScgLwPOAKOgCPgCFQFASegqsDulToCjoAj4Ag4AXkfcAQcAUfAEagKAk5AVYHdK3UEHAFHwBFwAvI+4Ag4Ao6AI1AVBJyAqgK7V+oIOAKOgCNwmRFQ1izLMWo2NqzHMbOMjmzm4p6Q1JnVNeiYlzuSerMk0Wc4vDgCjoAj4AhUAoHLi4AgGshn5Jxlh4+bjfbrGBIZjVyMZX2TWWO72byFlsxbYNbQIu4RIUFMXhwBR8ARcAQqgkBtE1AgHFk4Y+dFOgPiHhHO2DmzC6fNhk9Y9sJZEdBgzgpKw1nfKAJakCMfPZpIKKmHkPJHfbNbRGm8/Lkj4Ag4AtNAoLYJKCPLBoIZOmzZ/u2WPbfH7PxBkdEZkc4Fed70d1xwVuiCk8tNLrgkybvgGjssae4xa19ryYJNZi1L3CKaRmfzrzgCjoAjkEagNgkIywdyuXDKsoN7zQZ2Wvbs+2Z6nj1/VFbQQBqD8s8b2kVAyy1pW2fWcbUl8/vMmpfKImoTEREfctdceRD9E46AI+AIXIxAbRIQAgNcbv3bLHvkScsObM/HehAeiJgKRQcXY3LpqyBAENHIBZe0LLOk/UpLuu8wm9+r+FBrTqhw6bf8HUfAEXAEHIESCNQmASnGkx3YbdlTr4qAngiutwRVWxASTMNikVoumxmWBk4qOMV/kvb1liz5tCULN8sdl7eESoDsf3IEHAFHwBG4FIGaJKDswB7LHn3asqdfD+63EPMhnoOrbFpyaqTbKOiQbOtolhXUeYuO6yzpgIQUE/LiCDgCjoAjMCUEapOAzrxn2f2P5ghoRMo3CQ4qEquRhDsr914yrzMnRui8Qa642xQTkkBhWsQ2pd/KP+wIOAKOQE0hUKMEtNWyex8xO/OmCEMS7IzW/lSCIMLCVcWQWB80H0HCZksW3ylxwhqd39cJ1dSd4RfjCDgCs45ATRKQnZXk+uBjsoDe0FqfU7l1QEGpNt1MBvkMCsi1IaHGrpwQoeNaSxbdJDHCKiegWe+qXoEj4AjUGgK1SUCDByx7/GUR0GuWPfOOSOi4wj/KboBkejolxn8CAYmMWlda0nVHLgbUvsGsqasyFtZ02ubfcQQcAUfgY4pAbRJQXgVnp7da5tTLYf1PiAORhidIsEUiIa9byiIKLjq9Ta648cLz1GtIDCl22xWK/dyuhakbJcuWAKFB64G8OAKOgCPgCEwJgdokIEQHyoCQHdxndvItrQd6V1LsnUq/czzIqSGZZDzBKHihjstbR7jYYmYEfS6r1+GzygeXtCwX6Vwl+fVGPWotEBLskJZH8R8vjoAj4Ag4AlNC4CNGQLI2ppStWjnbyNsWyaPw0qMl1P+BSEjKuJCGR1kQxpSAlEwJLEpFoICVk44RBbm2CCmm4tFiU5KSJq2rJTy4RjGfdRNYPlNpP+fXQeLTIGDAGktZZIXX4q8dAUfAEagxBD5aBBRiLSKESWerlhy6aVEuW3WxHyZvCZF8NDusFDznj4mETuhRz4cPK1WPno+KkLTIFEtHJ8pZNFg79fMlNujMrflpXqznygfX1B1eW+PC4pbPpNuvNUlk2CbFD+ecp7pcRVfsF/T3HAFHoIYRqC4BMWBjicgiyV5QgtAxrdnBOlGW6qyyVdsI2aqxVrBSonUgK6NOVg9ZqgMpiIDIXF2nlDgNGsg5glsMCyOfo406SEqqNUHZCycDEdnQwdzzQECSahMfChaJzgP51MvqgdxwuzUuymXGDufX39knKJS8xRPaLJKjvSHb9plU+5GBQ26pUqe2NSijNlYVAoZAaPPFQe0hxhTaTx2x/amv+lNHIBtcw7iHc0chIonimXV1dXIdx3um8BP+2hH4EIHYj+LjXPaf6hJQzNmmWE329Jtm53ZrEJdsGlIYUxwnuMjyg3d0swVLRTdW2DAu54JLIIgWucfaenMJQ5sRBqSIIlgmOg9EFAhPOeEgPSwkiMeoQ2QSSA7iYk1Pvf5xflkq4xvT5d4fJ4Zo8QyKzE5Jcde/Q8RzREQHmcZzf/hDX/KMeqiDdUVNS7W2SO1fcKVIb6Xek7AB95wXR6AAgUwmY2NjY+MHA0e61NfXW2Njo/HoxREoh0Bhf2LyMlf9pzoEBIkwQMsaCdmqWbcjAmK7hGwYvGU1pIssgSAE0HvBVcbAnyoJA3jrKh19Zgs3iIT02LIqZ1lAXJW2JKLlhkUF4RBjOqm8cwM7ckKHUe05RIntLpyJhpmrMMhfR4JlJVdcMn+11hchcFCuOZGRYYG5JRSg9P/o+9lAOufOnbNTp05Zf3+/DQ8Ph/fS1s78+fNt2bJl1t7ebg0NDcEacvwcgUIEmMSMjIzY0NCQnTlzxgYHB210dDT0F/pQPJqamsJkJt3HCs813dfVISC51bLDcoUNvG/ZEy/pEctBr3FfBavi4hldzvsW3Qm4vQouF4LBmpDVkMj6CdmqF98lsYCIKG0JFXxt2i+j5TYg4jn+vNovAg07rKr9uAsjQYYm819se6yRC0hdB+3HopO1lSDpRmG35JO6jg1uCUXI/DEMDgwWBw8etK1bt9revXsDEUFCzFo5KCtXrrRbb73V+vr6wiDCbNaLI1CIwPnz5+306dN2+PBh27lzpx09etR4j0lLZ2enLV++PPSh7u5ua2lpCe8XnmOmr+eYgBh0dbAbKe4qrJ6TIqDB/XofN5gG6ulYLPrupdmqPyW5tBRr2j4h7GQ6U6TC9/PtJ7+c2pw9LYn30adkue2aYftl0YXr51ES8flrREBqf+f1ItE1OUuuIu2f2UniDJyZ0tmzZ8PsuxKzongOXEZ0/nnz5o0fzL54z4tClxocmKlu27bNnn76aXv33Xft5MmTYQYLdhHH9evX2+c+9zm77rrrbPHixYGEHD9HICKAyw1L5/jx47Zjxw7bvn176FMQUZzMdHR02Jo1a2zz5s12xRVX2IoVK2zBAsXdK1zmloCCdaOEngO7LHvsmTCAG2t1cLuFGA8EVMxiKHfVEEN+EGcg12ZxdQtvMFukbNUM4pBQJUq+/TaoHVZFPgYBkW8Ohd2M269rGE/1o5gWbrgOkp2y75DciR+BQqdlBn7gwAF766237NixY8E0jzPv6TaRgZNzNDc3B7cRHZ2DWZgPoB+iOjAwEGarr732mv3lL3+xt99+O8xgGTQi+fDpTZs22Ve+8hW78847rbe31xhMvDgCEYELFy4YblwmMo8//ri9/vrrtmfPnmBN45ajL2E1Y0nfeOONdsstt9gdd9xhq1ZVfhyaYwISOUgEkD2rNTkH/pIbxFGOITaI2yVElKbzOJ6tWjEhshWQrXrJPRInyIqoRIHcEDGw3YNcb9kzb+cWuAYCrYBqLRCczi8VXlj02iECXX6/yGhdJVo/43Ng+Zw4cSK4f5544onQaZl5zxYBYfoz84KEFi5cGMgJVwAWEjdJetCd8cV9DE6A9bN//3576aWX7I9//KNBRDEOlG7+1VdfbQ899JDdc889tmHDBuvqktLSiyOQR4CJzJEjR+yVV16xRx991F599dVgDXF/pwv3HX3prrvusgcffNA2btwY7r1KiluqQ0AM3Pv+IAJ6W3EfBAeyXipCQHmCUBwlae2RBXG9JcvuVUxlbRrX6T8fJyBt8X3kPyIgWUBDch+i2qtI+7HiProEROD7gw8+sBdeeMEee+yxYLpXigg4T6ELjiD6kiVLbO3atcEVgGupp6cnzOgrQXzT7wjV+WYkoJdffjkMHMxceQ/XXLo4AaXR8OeFCDCJfO+99+y5556zP//5z2FCGcUs6c9y/xEHwgL66le/GqwhrGk8FZUqc0xADLBywQUL6G8ioDekhJPsGjl0UHtJsTatggsu5cJiv552WUAQUBAj9EzrrJd8KbrgggX0XLDgQoqfillAeQJF1dembAtYQJW04C65oKm9gcsNt89///vfMAASg5jNQkfH8lm9enUgIFxLV155ZXjN7KytrS3Eh2Zqgc3mNVTy3GkC+tOf/hRcJwSRnYAqiXLtnwvrh8kL9/Ff//rX4IordtXcfxDOzTffHCxqhC2VdonPLQEF5ZeI4pJs1ScUQsmnpCmGRLn3YvxnPFu1rJ/uu7RVglxwcsVZU2e5M0zy73miUyYFrLfsKW33cHqLosOSYlfEAhI5s+GdYlhJ56259n+EdlydawLCysHdhtuNGwGfNAREYJSboVfxDaSil4vKywlokrepf6wkApcxAeVxGVbWgIGdCuK/o2zVGsARImTkRgiLQrFkKHkxglwzuefhzfx/eSIIeuz4ef1pPFu11gItuVuuN2WrLpWqJ33KqTxX3CorErUz20RC2vZBC2iNtT9K6ZOTYNOmgnaH69DbwVKLlfG5/GeDlFxxJLI4SPlWt0jig45NciWulIqv8uqT2IKpPM41ARW2DWsIF9w111xjd999t1177bXBGoKcLof1Lk5AhT3CX08HAdRveC+eeeYZw5LmOQIj1HHpwuQOFzguuG984xt20003hYngx9cFF6+OuA/pdpBfi4RColCtCQrZqomzqOSyVcslV0yWHS0efXbCbNULNHg3L9OArjUQQaEWK6/AY8imoLVMQyxC1RogXIqKB9nQoSAHD1Lq0G5IiMI6pbx7MVxf/ocWGYWFtSKnsF8Ra5jatAZowVUiH2Xdbl0R1gZ9mPond7Zq/V9tAsIaam1tDZYQcQ5cAyi91q1bd1lYQk5A1er5tVUvSygQsxDL/cMf/hDccQgTUMelCxO7Pq0lQ4QAAeF54B78+IoQ4tXFWAqWECQkayh79t1ctmosCQiKgTocDNbRytGAjqUQrAseGnIEo0wCifKpJS09yoSgwXv+Wj0vtk+PzoMFgqXFYlLOT542Xgdi4JyQns4bUv3IIomxqWKWmMQH2SFJsFmQqnhW2P5hVGuEyF8Xzi1BAaIC6kxbQDwP9eTPHxOTKgVPIB+p3j5Klo9QCWUyBISYILrMiNGwjocYTWG6mHhOHlmNTRyDAyUOAVHeQxJarCDRRh13/fXX23333RfWuyARJWhaKVFEsXqr/Z4TULV/gdqon/uM2CGLmf/1r38FFVyUYWMJQTBxogfp3HbbbfapT33Kent7Kw7AHMeAYvvzRBCyVYtsRmUNkQOObNVaYxOyVWsX0yBQGDmdc23xVQ3aWQihrllPW3M7kSrlTsI6H8V5ErJXa7vsXB41ubIgknSJxFeYbZtEpaNqB4UkoWQjaCQxqEgN9xcEwbkC+eU+Fv4PRKbvhSSnJ3IWnK6B67Dzar+uKZdaaNCS4F4UFwXSpP1Kv5PPtm3aVygh47YSkybzlH5Hm96N56BLVVftp+UIKA7+kAPrB7BM4irqYmQCKWH2IyXGL33o0CHbt29feM5gWxhcj9cf40KcH6nx7bffbjfccEMgpVpWxzkBxR7gjzNBIKbgQQ23a9euYAH95z//CYtSWR/EBBLhD14GPAzIr2Nqp5nUW+y7s0tAzPyZxeJbzOg5pU6zf1KGiGU/tAr0dwboC/2ygvIExOZxpLeBgIJUW9/FaiATNglCQ7ZqbWWg/GmG66oYUWCFjMms5PtYKyHJqSwsZd6+KNs2FgsZrSmcm9xsIds2BAQRQUKSdjfoMSQJhdxoP9aYSiGxsc3DkEhIj1myJpBiCLKlXNR+kQ3ZtpsWK1alaynYliErzDJjmXBEC4JBvq5eaVd0JGA5h2UyBIS1g1z6gQceCCREzAZLqNC/TLMLCYgUM7gGICEWu0JK3CSF6xPiJeOfZoYGAX3mM58JNwozt1oVJTgBxV/eHyuBQFyQytKK559/PiyxwBXHPQQBIfghmwZS7Nma2M0uAcmcyw5hIcgNNZp3pzRo4GYhYQuWRrRQokWkz0EWDNZykZFeJzdwR1cMA76OMPiTrVrKOSwhHou5ymLOOTaiI2EoWbcvylat+oILDgLM15E/90UuOLZ9aJayrq03l58Ni+uiHHP59geLiDZ/eB1Znodzq45Q0u3Pk2kgpbwKUASjCwyfHBsZs+FBuaOGFSDUc0rdPCnDmhqsqVUJAvV8LstkCYiZE+sGWD2N2Y54YKICCWH2Y+2QZSHmOmOdAgstuTEgpGKFYCjuOKytr3/960EZN1sztWL1z/V7TkBzjXht1xdT8mD1IEzgkXsRQQ9WEC5t4kDcZ9G7UWlEZoeAZPVkhzXw6oKyJ1C86XE4ZwEkTY3Kdaa9djplTYhpk2YNwhARA28YfCtwiXnLJzssK4ScczpMW3KHeBOWVcxWPcmqghXUvELt7gvbcScsbA1bJmhgDcQHMVaujIpwzg9oQD49ZAMnztn5M+dtZAj8EpvX2mjzu1pt4YqF1rqwJZAQ1tBclMkSECq1b37zm0GphpuMlDpTKSx4JUcVCy7/+c9/hrVHvAc5FStXXXVVICDccbgLanXlvxNQsV/f3/s4IzArBJQdPK8koyKeQ0cts3ufZY4pvjOYHzxaWyQxlmtr+WKrW6otCJboaJPLC8sI11wlSrR8+iWTJuecRAI5mTTWFYKDaI1MsrLg+pPVhvsNdxl52rpuC2KH2di3Z+CEcn5tO2zHdx63U3tO27nDCsyflGUll1vL4mbrWrfIem7usa6+Rda6oNXmNSsuNgdlsgQUV+J/4hOfCKlgFi2Sq3EKJboGICGkolhBW7ZsCVmgi52GTAn33nvveDxoNnJWFat3rt9zApprxL2+2UZgdghI5JPZvtsyu0Q++7RZ2wliLhpAVRKpoqyjzeqWdFndcsVuVi3Tc5FQhyyiZv2tEkVbO2SRR5/UJnEnng+Zq3PWlQguuNimSHQhxiMXGBaaLJ4Eld3ie9TmzbLiVuRiRDNoN24ojpEh7c0hq+f47hO2/7X9dnzHcTt7sN8Gjw1qc1hZlKq/saPRutd32Zo7V9uKa5ZZ95oua+2QG7KSFuQE1zIVAvra174WLKCZ5CIjPfybb75pzz77rP3tb38L6UOKrVfAR40km7VB999/f8jeW8xlAMYEYAvjUfGzIb6mSRCPlSzUS53xd+aRQrwM3/pk65stApqofWk8eD7Zdk4WuzQeER++G+tK1z+Zc5a6jnhOMC+8jtiOtBozKjFjX+F7uKZQdeKSwkWFGCaedzLtK/xMdD1TF9Y9E68o1on1UQd1chDbnI31blx/sftiqv2z8Pom83pWCCiz54CNPv2SZXbsUTBe62VGsDryIgRublk7EFHSKdnscmWu7l1l9Rs1qHdNzVUz0QVmB3YrV9uTQRpt2uQOlV0gnhA/YnDhmErJx3jItIAFRaaCjpvUfqX66bxW7jhJvmdQ6OR0gNMHlWzy1X128E1ZP1uP28DRcyH2kxmVEAERBxDqaF3cakuuWWw9Ny63dbf2WmePcKukBTnBtcw1AaGOQxnHeoXf/e53ISZUbL0CLj5cfVhcrFfABVgsaMoNz40eb/J4mXGg4+bmJue7lSzUx+ASyZMbnkI9DGTUO5kyWwQ0UfvAJQ56xfCcTJtLfSb2e3ABn4jLdH+PUtcRB/Riv29sB+tjEMKwLQF9nde0i8L3ENNgzRNnrEROwpgUlPro57iZiYWCA/WxEJT4KS5l6qTu2cj8MdF9MdX+Weq3nuhvlSUgbiwdme27bOSxJy3z/u6cW40YhWYQoaCIy9+AWDzJwgVWt2aF1V97pdX1aB1MG/JqxYVmULJntDB0/6MioNeDRDoIGaZj+RS2QSKDkCqHLcC1WDS3XcKtcsWtylkgUyW2PF7D54btLG63947Y7md325GtR+3cAVk950ZkcGnG1sBC1USeQ81UhsassW2eLehrt1U3rrCrP3OlLVm/REkgNBuDhGaxzDUBMTPkJiVb7+9//3t78cUXw40KMaULqh3k3iyY++EPfxhWbDNzZNChcINxY6Oo2717d0jgmf4+n+OG5wZH/VOpzAoMXjGDOAMMBMJgFwfaeIMzwDCgMdjQFgbgYqXSBBRxYU8hhB6sDUm3j7aAY8QFoq/EDByiwNpgwKVeHnlN3ZRIQNQHLtSPBTARUcfzcR38vpwvfR0TnY/PEHjne1jbEAEEhPqS1+UICFKgjRyQE5MJftPC34/fm4NrZAIEzvRF6uFIExB9nnZFAqIv0j+WLl0a8rDRzzliTrZi9RXrO+n3YnsiAdIW+hZ1pwtkR73UF8UI6b9X4nllCYgOJLVb5r2dIqAnLPPB3hyZMDDGmyqSD60PM3ptwNapG++K1Va3vtfqN2AJzWz/kuyZrZbd+4hS5WivnqCqk9US6i9+Y08aSMQNqNq0fidpUxyIZKHdEFCPzo+QIk+ykz1hHq/TB07bLlk++18/aEffOmYDh2X58DeKmhw6tB4hoOxIVkuV6q1ZsaDl1y6zqx/YZMuuWmZN86WKa5zcTDp34qn/P9cExADJTYEiDhfcc8re+84774TZabr13IQMUFhAP/7xj8PahTQBxRvtjTfesL///e9B4JD+frzZSXbKRm7EsCox02SgYUAk8SPrLHgeyYf6+V1pOymFsNx4pC28V6xUmoDSuCD2eP997VCcuj/jwI3IA1UjktxK4MJkAGz4PdjXiN83TRgRG9y3n//85wMuccAthks8HziT3Znzpa9jovMxQSDOSDvoW+wKCkHQ5zjSpAgZRwsZouEgNyG/GfjEtTK8X0iUXBskyTVDuOylRWyT+mh7PGgPn6PE+tIuOIiYOmMqKmKfxeoLJyjxX2wPv/e///3vcP0QLv0hXSAfFnvzu7PODsKtdKksAWnNin41EdAHNvJXWUA798k91aQYyQQDI9Js1HJSwiWLF+UI6KZrrG7VcrnoFFif4EYsC0K/bqSDf89lJ9Duq2GNTzqDQtkTTPCBEAuCgLRgdME1wf0WNrwjDjQNAhrTtQ/3D9qRd4/Yu0/sCK43LJ/RIe3L3qSZcP3FhBkISCSE/Lqxs9GWKwa06XObwmNLu3zSkmfPZplrAuJGYRBgncKTTz4ZblqUcawRKlYgoJ///OdBjJAmIGbE3Oxk//31r38dBoD09yEvJKckOP32t78dVn5zs2NZzaSUwyueG7n6z372s9DuUgNKpQmIAZGFiJAjuBBvK1aIr/3oRz8K7asELgx0zPqp9xe/+EWwcIvVy8D3ve99L9SLZTqRnB+LOH0+5PvpkiZ6fl9+Z6wW+gX9Ccu6lNw/fa7087gOjbVoDNQQJgIY2pm2FKMVzASEbPLswwMBsaX6VApWFqTABOmTn/xkIAZwKWchFtYByUF2EPZvfvObEGNl/R0WX7pgfdI3ia0i8unr60v/uSLPq0tAzLYgLawTkQ2ChIZbNlvdOm1JvUhrb1q1Vmg6ZUg7lp58VcfrytGmQzuWhlxruOFmUiIBkTKn645cDEjbPpDBYDoW1uAZbfC2+7gdePWA7fj3TjvxQc51QBPDItOL+SdnAYmAGho14+9qCsSz8X6tUr56mdUyAcVBEjFCqYFiIgJijQOzYgY8cl+RgiRdCCozaLCeiJk+AxTCBkhpJmWyBMRC2p/+9KdhoIX0IM9ipdIEhOsJCwBcHn744TA4FquX2e8PfvCDMBBVApd4HdT7y1/+MszAi9WLdfGd73wn4NLbO/HOrpyPVDKc71e/+tUlRAoZMMlg4GanWBZKY10zKXnqqadCMs5SC56LtY334jo0MOGc4MRgzRbWaUsR9ytuZJScbCaI5UGfnGiB9UT1cR3UCXliCUF6EAMWUSkLsfB8TOqomwnHI488Eu4pyBAc04U6SETK8obPfvazIc6a/nslnleWgPIupWAB/fnx8hZQvAKREEKFOokQ6jevt7oNvRImsKGclHGQE8dUSsxWfXqrZU48p1xtu+Q6y0uwOU84Hf/FcxeePxfLyvsI8zXrMyx4bZBwgr16um/PZdsumnMu/5UyD6f3n7adL+yyfS/tt4NbDtk5iQ7qW0TEBZZPPE20gOa1aKHY0hZbvlkW0H0ioI1La9IFF337EBDWy3QJqBwRcFPj4+aG/tKXvhRuujiTjdhP57FcvfGcENBPfvKTcQLCDVesxIGbWXsl9gOCgLZv3x6wReSBe7PQdUU7sES+//3vh8G1EriUI4x47VgWWCwM6ribGHiLlXIWLoSOZYlQBcsBywUCgHyxRoj7zKREywTCZKBmIrNmzZpAFlhnTH7YQRjywf2Gu2smJRIqpEcuRPoPJISLLG15TVRHjE3iemRnXSZ1EHghAZFSiwzYEBCZTSDWSpfKEhAWjY7Mu3LBPfqvXAyolAsuXo1m9cSOkvktlqxUQF0WUP11G61umdRlxI/kf51SCZkIpL4j0WmwgrR3DxmrWZhKkTtuKtm2w1ewnpQ2J+mQ8q3japGPslYrh1vYPgH32zTK4bcP26sPv277Xtlv50+dV9YgYTAvJzgodrpIQIgQ2nvabeX1y+3qezfYkitqU4QQY0C44JjdQkDTccGVI4LLlYAYuMEWcv/tb38bLCAIqJCEaoWAIB4GUQgJNy5EAAlP1RIpvDejZYKVRuLO6LbCmsXahniItbDtAW4uYj4zKdGlCCFDzFjsX/ziFwMJpS2vieqoXQLKXzEquFGp4Mbe3yPykOXAUcqSgbiwntQxWJRa17vSGm7ebInUcYkWrvL+tMoFLYaVJNvOsmWCSOj8Ibn8JKsk1Q8khawaaXYoPKfwWu1FIUHcCOJhjx4ybrPNd+cNZtrkrni2bb5fvsQUO1g+r/zPFjsk2XWI+eTVbjkL7dLzRBFCU2eTLdoghZBUcBvvucK6+5RHbjpEfWkVJd8pN5DHoDWujkqsA4quAmaQ//jHP8JMjRuadqRLORFCuXY7AdU2AUWLgcGZQRvLOgbdIVv6D30ANx0HFmi0QhmsOaIwAfJgYlSsEIuB4IiZkT2a+rB4sLKwMoizUKgPEoz18Uj9CA9ifCYKExBFcB8UK7QR6wtLEcsdS6ivry9Y88U+H9+rfQLavd9Gn3oxyLGzA4PBvZYocF7SkoGEsHQ0kNatWGr1N1xldWtXy9UlxRkkNJ0Ssm0PKiko2bZPSvCg5KCIErSjqZH0lESh5G/TlgnZfLLQhLxsbGynjNu426xZgzvrfrB2lDA00XbfIWkopDRNyyfEfvactD3P7rV3frvVTir209ilfTbkfpuIfLj87FhOht26pNWW37TUem5ZZetu67POVWpTKYKfDnZFvlNuIK80AXHT48LAd06MgmBxHDjSzSsnwy7X7suVgC4XF1y0GCAiBn5Ih74FkfA8utCwkIilIHuOggfcUsSH6EP0PWTThWqx2BcjISAMwJ0LAUE6xFdwIyP6oNDfOD/yZkQFsV6ICOLBMiVuhGuQo1AcEOuLSjncopAeMVBiQlhFpUrNE1D28DEbe+0dG9u20zJ7tUmbSGhSqjZISEeyuEvrgjZImt2bU8QtnCAYzOeRLSJkwIKiQGL1HAzmWDIqQTwgoonbMOCKY/M4ZcWGfII1lCcgslUHwQIEM09y8Ba2SVDGhiKxHiwSslWPsVCUNqiQl62+oXS26jNacLp7yx7b88we2/vEPuuX7HqcgMJZiv8HAWWGM9a+ss1W390TCGjVtVLdLJk42WfxM03v3XIDeaUJCPLhRmT2iIsIdRPuksIZITNPFEjcgFheWGDMMrlBKeXafbkSEAMrMSDcm6yzIgZUrHzcXXDFron3mLhANsQ6GLQZyCED3iMmSIE0wAnygUi2bds2TgoTudIgFxRkEAp9GBLjQNUJ2VEHJMVnCPQTu4H4IgExMaDf7969O7jtcBfyferDQip0kcb66P/f/e53Q8yO/s/9WKzUPgGdkcWx92AgoLFXtCbnmKwOYkG4iUoV/UDZEcVBpICr27TW6q7stXpIqHOCdUHMYMi2TaJTmcmhEMDVQtai2baxdtiIDrLR9gu5TNUiMVxxkBSF+FDMuF0n1x9ExK6qRSye6Eq7MDhiFwZz9TcqWWhjq8zrEtmqj71/zN7+x1aJD/bZmR1aADZwoaT4INcw/Q8/i/Q6+zpt/X3rbNXNK627t9vmd8wf/8hsPik3kFeagLjpUeogWY2peLgBuZHThRuZfUsIVseNs2hLvAHLtdsJ6PIkoCgzRr3G1gMQEWIF+kPaBcfAjysMQiAGiXy5lJgAKwtyYwKElcWEiQOiwEXHBCnulwXZkdEd8il0wbFmCPUc9SHfhpSi5Zbu/7E+Yk/I5XksJeeveQISVWsNztmQD2702S3KB3dYA7hmozEWlEYv/Tyvhktk8STrlJ5nQ5/Vb5IqTmuELnIxMQtIZ9vuV7ZtiEglEA9iBs6hrAoziiGl28bzvIUWslUre8GQslSTrXrwlBav9YvYNOFoXtBkbd1tJbNVH3rrkL3y8Ku2f8v+kONtbCQj3tOXi09YxomnTuq4+tZ6W7ppqV35wAZbed1Ka+vSrqMivbko5QbyNAE99NBDwSLBMsFCmUrhBmGF+mSTkVLHF77whaDWwfVRuGCuXLudgC4vAmJwJhaEcozcgbivenuV0krvpS3n2Gfjwk0IAOUYFjnr0uifkNNEMaH4/ShS6OvrC+SAsox+CgGWEg2g1CPmCQkhFEHEwKSMe6NYieu1mIhBbJBgsVL7BESQToSQIRb04huW2bVfirQhcqLkXGQTmIZh0zqp4Qzi6FEcCDXcZqXoWSo3GNZT3qVSNNv2+XwaCdL7dMhlp9gRyU7rV0vIsFBy7koUZt5qH6Rz+IOjShp6Mpet+qiyVZ+5EDQLzYuUrVpZqktlqz7w2gF78X9fDgSUkVstlInIR3+Mrrd5rQ3W1jPfVt640q56YJMt2bA0LD693LdjIAj7rW99KxBQse0fnIC0Tq1IuVxdcFFejKWA24o+w2CN1ZO2nCNkuLw4GPjpS7iCkcFDDKViQvH7McaEpfXggw8G8sHlxvuQU3QVx8/HxxgDxe339NNPhxgoBEidxUq5+yB+p/YJKD9QZ48oFvTWNhvbuVe52Y6GfYHGraBiJBRjOhIdJMu65X6DgCTHFpEEJRxWAp0B64ptHkRwmZ0it+NsfZ1TiiQo5kRgpi0f6iTpru9Tih/JuZN2uankmrvIkoq/SLlH2qVjuF8Wj+I3x3edsIPbj2oR6alctuqTSnB5TsSp5s1rb7CutcopdruyVW9ebt1rP3SRxY68f8sBe+H/vajUOweC5VNyZ1NVnbmQsdH+UZu/tNVW3bnSVt/RY323Su2ycgLXZLnrmebfyw3k0QIipc2Xv/zlcVUOM8t47YVVx9klNwUHrg5mmsz2uMGZbeKKKFawXHBfMKNk/yHkqPjXmVWmS7l2uwV0eVhA0RIhbQ4plyCguIgz3V8meh4VahACKZ1YFlDKFRfPw0JV+ii5Cj/96U+HRauQHdbWZApCBgQ41AcRsYAWlx7tSRfce6zXYd0O1hD1Fiu1T0D5ATvbr22wDx6xMWXFHntTe/Mc0RbbrPlhto81U0hCfA9QJyIgvicLJHP4qI29ofxRu0RsR7T1wjkp3dKFH1ZElCyUpFtbPSDrrt+oxaMSN6QtqfRXSj7PE+qJD7Si/vH3lTLniPUfGbChs0ocqJgVVsz4ACsjqWVRi3Vv6rJVN620Dfest0Vrci6oONjuk+vt5f//ih1442BpAoL3hBfkduHkiC3e1G03/OA6W/OJNbaguz0sPi3Z7gr/sdxAHgmoT64GYjG4GViQh+87Ko7STQIP3kdYEIO9kA83HP52njNLn2idBmTDrA/5KQvyGFiYyeITT5dy7XYCujwIKFoiDM5kRCAOU8pVle5DPOcep8+iTMMKwi3G8gBccaVKtExwjXFvMCHD6uF+mUyJakXiT3GDxihKSH8fEQX3AgRUSg33USKg/wMAAP//iJDF3AAAMZ5JREFU7X33c1vH2e4LgGIVe++kqEJ1q9iyLNmO46bPzk2xHSdxnLn5IXe+5JdvJn9KJj/dyST3ZpzYTuzEie18cYmd617Um1UoUuyk2CX2AuA+zwIrH0KHAEiRIiS8Ozo6IHDOlmfP2Wffsu96Jicng7JSaWZGgmMTEmjvEv/JCxJo65Lg1VGR6RkRr0fEEz5s+QFUZc4vkpUh3soS8a6vFd+OzeItKxZJ8YkE8TvuDbR3y9yR0xJoaUd+YyIoR7zeUC6BQOg6/rVmjXiyMsVbXS6+nY3ira0UT262SHrajWXbOjjOQZTHY2Z0SsZ7r0nXiW756u2L0nduQOYm5yTgD4p3jVc8KR7xoD1B1D8wHRBfmk8ySjKk+u4q2f3MXVK2tczkGkDd/H6/dB7vkiP/96h0H+8x+ZsfAcX1hGYyLyYPMPJ5vGj+GqnaVSE7/+cOKb8L7fH50ORwm6/fuLIf+vv75cyZM/LRRx/J3/72Nzl37ty8AllXHiUlJbJ161apr6+X0tJSyczMNO1m+52Jf8/NzcnExIRcvXpVBgYGpKenR/r6+sxnfu+W1qBfmWdDQ4M8+OCDcu+998pdd90l5eXuuMSqd3p6uuTl5Zk8vvOd78jdd98tVVVVkpub61Z83N/FKtdmxPr/8pe/lAceeMC0KzU11f4070yMOjs75fDhw/L3v/9dTpw4ISMjIzI1NTXvOmL//e9/3+S3ceNGKSwsnPe7/WNwcFAuXrwoH374obzyyity9uxZ+9O8886dO+WnP/2p3H///cuCC9vR1tZmyn3hhRfk1KlT88qzf2zfvl2ee+45U+66deskPz/f/jTvPDw8LC0tLea5fPHFF+X06dPzfrd/FBcXy7Zt2+TAgQPy5JNPyqZNm4RY811aTIq3POablpZmns9f/OIXptysrCxT5mLKGxsbkytXrsjx48flzTfflGPHjklvb6+MjmIsdSS+azt27DB4ffvb3zbtc/x8/eMMxku+WydPnpTXXntNPvvsM9Mf7BdnqqiokD179pjn6NChQ7J+/Xrnz8vy2bOiBMQBBwNMcOSaBDq6JdDcLv7zlyU4MCTCAZaDLgdREhGTPyDB2TnxZGeBLDCYbKgHATWKp7QodA3zmpgEkXWLnwTUCkLjIIV7rudBkrIp/NGTnyve+irxNtSID6TmKcSDTEKLMYBbwhhsGZTmD5ql62iXDFwckqlhvPA+DLY42AYOuqYtKM8QB5uG76r3VMm+/3WPVO2uNDWyhNZ9ukeO/vGYdBzrFP+4H0QWMARm8sCVQRAbiYyklpLpk7zaPKneXSUVOyukbHupZJdkm/xNubatt+Acz4DKOvGly8nJEb5sHNxTUlIM0bL9zmTxICnzpZienjaDKc88+L1bIjFUV1fLrl275LHHHhMOkHz51q5d64pLrHorASUHAZHEHnnkETNA20kGJ3GLfY848Hd3dxvC+93vfmeIwe055SSpqKhIDh48KD/72c/MYM53YbETR74LJCESNScen3/+ubS2tppJm7NclrVlyxbTvqeeesp8dv5uPycPAdkWT01L8NqokVz8Z5pARj0io+MSBLAkHSPZ8FozgAfEW5An3k114ttYL96N60AYeaGcZmYN4QRaMXAfBgFBEgoib0NAtiznGQQYnPWLJz1VPMwTJOTbsVG8VRXiWZspmIo4r77h88wUZgojE9J5skvOvXlerpzqhTQEEqTkk4YHlwTkkgJzkHQm/JBYquTAf+2Xmnuq513Vf2lAzr71lXR80SEjzZjBjkyHCCgs0Hh9XvGlYvaUmypry9ZK6dYSqT9YL8UbiiQzJ1PWpK+Zl9+t+iPWQL7S9eBslSRD6YQzWc7O+HLX19dLRkaGITq3OsSqtxJQchAQB2cOzJQ0N2/ebMjB7XmJ9d34+Ljwmfr444/lt7/9rRw9etRVwi8oKBBKoJQcn332WfPMxsrb7XdqCUhClFApsXz66ady6dIlGRrCRN6RKOk6y6Mk7JaSj4BIMrMgD0pCnT1GJRdo6ZTglUEJgogExGISBl6jNqsqlZRdW8S7oU48UL951maFfl8sAXHGbWbdIArkTUnKt32j+CAJeSrKxJOz1q1/rn83OjgqPed7pPNIp7T+v3YZaYOISoENkgkPK7FcvyH8IRYBjQ4g3696pe2Tdml6HQ9S0zBmYbg5zGdpBemSuyFbihoLpWxLmRRvLJai+iLJKsgU3xqo3ojTKqRYA/lKV4kvNNUAVDPcc889Rs1XU1Nj1GdUdyw0k41VbyWg5CAgTlp+8IMfGALic8TnaSnJEhBVV3/4wx8MAVGlNYsxzpkopd93332mvIceeshMlJy/x/uZmgDm/dVXXxkC+uSTT4zqlCpUZ7LvBwmW7WR73VLyEZBFwUpCvX2w33RIsLvfkJJMQIqhSm5Nikg27T9l4t26HpJK+XxJhSQWSwVny3KerSQEwvHWVohvE1R726HaK3HXjVMl5ofkNNQ+JC2ftUgnVG99p/plcnBKfBkY6BaQfEyRhvPwHzi3alel7P/PfVIFVZwzTU/MyNjgmPSc6JGmN5qlHzYlP9SI5EpfilcyyzKlYGueFG8pktLGUsmryFtVycfWPdZAbq9brjNVFVRZUJXBl6u2tta8VCQgHnzB49Gpx6q3ElByEBCfGdqUOEDXQ2qm3W8pyRLQF198IS+99JIcOXLEqMgopTgTSe7xxx+/rvKjTWUpiaYAS0C0vVLyunDhgkQSEG1kLNMSEG1obil5CchKQpNTIWeEa2NGAiKpGCkoFU4D+Tk48qAyy4UDQQZsNSAla6uhTSCaE4IRI1wgt5IQjY00Oq6vk5SH94t33XzVmL1zdmpWJq5NyJVzV+TCv5rkyulemeiblLkpqPPWhKUfe7HzTPIBkXpBImuyU4zdZs9ze6Rie7nzKmPzmZ2G8X1gXAabh+Raz6hMDMNZA/VMz0qVjMJ0yYLqbW1RlmTmZ0paRtqqSj628rEGcnvdcp2tyq2urk727t1ryIcqBqrgqG4gMcWjU49VbyWg5CGg559/3gzQfKaW6mQSLwHxWX3iiScMAe3evVvKykLOSIt9P5SAFotYrOuNcwLIhF5ylIpox6EaDmTjyYUhGfp8VyeB8H2Brl7xH4UN6FIbHBpGcD+dAkAuCxGQrQ8IMIhyvPXVsubQ/SH7UhrsKbzXkabg9TbSe1W6jnXJ+TcuyEDTgATCThPRVG+0Dfkn/ZK2NlVy18NQDtvPtkNbYLuBF59LopQ1DelvanQ6TEABEFAa7k+TNZlrjK1nNbzdXKpqvoo1kNv7rJcaCYSfqRqLdECw1/LM3yntsK32Ht5Hew9ndTQe02jMF5qzSDo4LAaXWPVWAkoeAvrJT35iCIjS9EoTEL3svvWtbxkCopcmHWWWkpSAloJatHusREJCISlQsuEAT9sK1XCWTCIJJXxfsLcfbt3nJNDUKoGuPgnCKHj9nmjlWgKCii/lwG44OsDBAc4Jnsz0eXeNDY9L36U+af+0XS681iQjrSOSkpcivnSS3LxL5/1B8pkZnJXssiyp+Wa11B6slbo9eNAr3N15jds26kQimsNBLwzjgAAPPUpRxtYEDBaybcwr/Bb8EWsgt1WwXmp0eyWJkEyox+aL5JYs8VCdxntJOlSPUMrhQfUbj+zsbONVZ0ktXlxi1VsJSAnI7blc6Lt4JSAloIUQ/Pr7lXXDJmGQXDDIYvQJlUp1Go3olmS+rkvcn4KDIxK42CL+i5dxbpXg8LWwxBSFHZg7CQi2Fm9RAdYFwRsOtiBvbRWkrhxTtnULvoY1P+0nO4yTQNvbbXKta0zSiqG6g0v0golNJQENzUr+unzZ/Mwmqb2vRorXwXkgP+xEseDN7j9cJyh41dEuxRQiKK85G2nM/dYV+TbWQM5CSQpcj0MPNeqjOevjAB+LgEgqJCASjyUgfubB+28mxaq3EpAS0GKeLyWgxaAV/dqVJSCu24G9xyw85WJRJro+p8EtOgODCu07S0jBMbhwUwoCAfm/hCoOn0OSUwzvMEpZWOhK7zcPnBG8cPP2bd8k3rAzAmfoHCgHW7Hu5+MW6fiyU/qPwflgaEpScuC/n7pA/siWZEEVXHAuKMWNxbLj2e1SvbcKdpy1kga7zlKSVdHNTMzKDBwXmFIzU3GskbTMkF1oKfku9Z5YAznJhwdnflzoR7UZvdSoMrPk7lY273Gq4KiGo23HquMoId1MilVvJSAloMU8X0pAi0Er+rUrQ0AYxIPTsOmQKPpDrtZBRj/gAAXi4RocOhsIohQsiYhoO0KEBT+kn7kPv5Qg1gO5RlaIbDslMkpimFF7ivOx0LVOfPfcBa+7kG7WEBA87fou9snZt89L1+EuGW0bk5nx2ajeb4Z8ZoOhtTv5qVgwWi5b/8dWKd9WtiSiME4QVydkEgteuQ5p8uoU6hDysEmFjYjOCbnluZKRlyFr0kCMt8gtO9ZAbonEurty/QOjFVCiWc0Uq94rRUCM6MDIEYw0wAWE58+fd4Uh2SIhMHrD5cuXDS6MXHCrIiHQC05tQDS93+GREIIT8HIbgnMA1vz4L9jIBxj4OZNFGBwvPdzKi8VbXoIzjuzo63FueGtJIpCu/HDlnvvgS2GEBazUCpELVXwgugUTSYjedlhbxHVGKQf3ircm5B4ZRL5BEFDP2V45/uop6TjeDZXaDGw0iEoQxfvNOh9kYP1O8fYi43a9/mCDFNYVLklVdvUKQq6c6JSB5kEZ6x9D5AVEBhgLSUB0cMirzZVKuHgXN8DGUggJC1LRrUixBnJLQDYUDBeJ0nGA9pvVTLHqvVIExPApHFxJQG+88YZxnXXDIdkIiAsouZCSuPzpT38yJO2Gy3KH4lECCqF85xMQbTQXYKO5BCcBLjgdCccYAgF5MPhLDgb/4kJDPhz8vVggyvA7VM0Z8ohGII4nlao3/7Gz8IaDHagbzgiQiuKShODo4CERIixPyoP7xFsXXqdDOwsIqOtUtxx+8YQhIP8U7C8gJuMQwMWnzhRWvTGCA4/cmhypOVhtCKhiC7y1ihF3Lo5kbT3TkHLG+yekv7lf2o+2C0MATQxPIvoCSBAu4CyDERjya/Olel+1VELSKl0PEioAgROzOHGLo0qul8QayJ0E9PTTTxvvHxIQHQlWM7HeXMTHAY8rySNj2NnQQfRUYiw4LnKl6nCpXlJUN/KZ6epCzD+sEWHsvHfffVeam5tdYVgtAiIRMBYc6/fnP//ZrLR381ZcroHbNp7x/hjPjP3xz3/+U5qamuxP885KQCE4+CzpOqB5j0b0P7jIdO69z0LEMAdVXNiAbgZISijGEQFkRCIC+XjrKsXX2AC1GAaqOGK02dK5fsg4JMAbzn/4JDzirkAKwihNnogmCcUgoM4TXfLFC8cRNBRRG+AAwJfSjYAo+TBmGwOSpualSumWEtnw8Hqo3solpzRH0uFOHU+yth5KPJc/aZUrZ67I1c6rMg3VG9cGUWgzAwPtTLAxZRRlSPG2YqwzqpD199ZJQTUkjEXgFk+d3K65XQmIC/ao/uKA9+qrrxoycraPtiauKeJA+93vflf2798vdXV1S16oSDsiZ5kMkPnBBx8IV65z0SIJyS2tFgExqCZJkQT08ssvG0mEz1kkCVGl+sMf/tC4L9Ox5GZVqiSct956y/QHw9iQkNySElAIFSUgt6fD7bvQSCmBc80y+7d3Q6oxLKI0EQ6c1xtVFxd1QhJh4FFIQSZaNSQRTx5sQ5BO4krIh04FDHTq/+IkJC6sC4oWbZuZso4xVHDdJ7vlyMsnpQMREOYQ041EM08FR0IIOx0IfkvLT5fCjflSvqNc6u+rl6J1hXHZfuzLPol1RyScLpTb9E6TDFxYONo2Pe1Ss9dITn0OJK0K2frwRilZj8jhWM/kIQmtYLpdCYgDrVX52IHWCRMdHigFMT4YowgzfEpjY+OSJTcbPJL2n3/84x+GfNxid9k6rBYB0RbDoJZcWU9iZhRp1p0E6kyUYp3rWW5mQSXjmjEKM20/LLejo+OGoJq2bCWgEBJKQPaJiHW2hHAeBPT6e1C/dYi4EVCYqIzqCmqj69Gq6RTQiLU5jFYdTwrnY2LMtXZA4mqLHm2b17OOMZwQes9fkdN/P4sQPN0y0TNhtl5whuCxkg81XikZKVKwPl/q7q8z0app91lbAFKFY0AsN2k+WHzZhztHpO1wm3Qd6ZbeE1cQdYHrmoALQ/7wHwvCP+vskIJwQJnlmSC8Mtn8aKOUIVxPGpwTfKlL8yqMB2pec7sSUKzw/8SXnnYbNmwwoVNou+LKdbqTLyXZ8Pk2VAvVTfyOUpFbWi0CIi7t7e1me4fXX3/dEIPb9g4MeUSpkE4lDz/8sNTX17s1I+Z3bD89yD5FMM3f/OY3JqqzWww1m5ESUAgJJSD7RMQ6h20oARLQm/9emIBsPhiATbRq2H4YeofbJaTs3S6eakSrdolQYG+74WxjzFESOnMJAU/hFXfVJdo21XOYgVHK8nCvoUa4YW/ZCNVfyEhuCWHg8qBc+uAS3LCx/QJjwPVPiTcdhIJ9f5jMWpxliFY9C0/BiVGE/AHhNb13SXoQbXu8K0R4btG2DQGhDSksuzDNeNk1Pg4Cwn5DGYihR4+4lUy3KwFZQqCqiQMfCcEtMcQPB1oSEPcZ4kAbT6gfm5eVaK3zAcvj/i2M2xUtrRYBERfuK2P3meHZbZ8Z2vAoBXEfne9973smzD/XbcXrHk9c+G6R8LifEVWh0fYBslgpAYWQUAKyT0Ss82IJyCkJIW+6Q/v2wS0akpBbhIIFiw+Xa7Z86L5itmkwYXp6BuZH24a6TmZAQIi27Tu4G+Szfp4Xnh1ARvtGpfN0FxaidkjLf7fIyKURVA4SCcxXTMsVrXocrtYDrQMm5E/zv1pkqHnYvKgsw0hPIb7jnyZZAmJE7FS4e9PNe/N/bDZnJSCL0o1nqxLjwPerX/3KqMRuvEqMzYekQxKiKo42oXiCndq87ASGTg5//etfjYqJtqfIoJH2enteLQLiRnYkBXrqkSgpsVElx++cyQaDpXMGbUFc37WYBcLWJkZpi2VQAqJtjGVFS0pAIXSUgKI9Jc7fqN6iTSaWCs55Dz+TGLD3Dvf98e3AwlBGKKjHlglcK2TUTxEjceT99m+I+GYH1h5G28ZuqQzTM4yXaRyLYSn9GMIDl4CAvPfuQDBSlOGyL9DkNcSC6x6RnpO9cvmdVhnEJnTOaNVZUH8VbCuQks1FUrKpxITaWdQ+PWHiHe4YkZbPW6UD2z30HEPA04GJqPsMXVfBISRQenG6UcFtPbTZbNmgKjj7ENx4tgMgw+f/+te/NgMgNmI0nkXOq+mOTc83upE/+uij16M50I2cs30ulqW6zqhEcaOdsNgBghIF1/7QsE5vO0oUHMwjdyx1lsnPq0VAtMcQBxImCYjE4EaY1kZGuxgXGO/bt8+s7+IGaHTgIDYL4ULsraTFcmj3IS7RbGIWHyWgEBL2+aInp0bDtk+H2zk8sMZ0Qoi8l8SFEDmMycYtEigB+XZvE28FFoguxrvLECCjLyDA6TgibGMTPBKQcc9msFO+KIyCgB1SWY4nG5vSMRoDPeYciV5pM5NQj4EQhlqHZbR3frTqzKJMya3KNQtC07IROBQbxC1qn54wUfdgZ9QjL5+SzmPdMotIB35Icm6Sj62aXW+UupZOCNnYaRVOCI9skpIN6oRgMXI7WxUQt7D+/e9/b7y+uKPltWsI4eRIHEipWiLh1NXVmZk+B1xuZEZysoMtiYjJSjwkGA6y9Hr78ssvjes1y2IZdJ/lIBwtrRYBERfWja7YdIcmObDeVMM5k7WRkXAY5YL2MdqDSEjEihKSJWjeZ3GhzYfYcPtt4kLVJ6UtOh4Qr4VsYrZsJaAQEkpA9omI88wgoXP//ED8OIckGNxISWahROLioEyCSMP6HLpl37fLrM/xZCIyNgaFJaWwRHR9uweQTdRo2xGFWPfoG6JVg3QWJfFE5gvbzzRsP+2fdciXv4Pe/Uxf9FA/4fvtRncZeWlSuK0QoX4qpfGB9WazukURdUR94v3zdrUB2fbF6/5LEuKgygGW+7lQFcfAqgwpRCLi70zWqE7DPSUfDuSHDx82Nh/agTjIxpNWi4Bs3UgIlA6ponz//fdNlAL7m/NsJUS6YrPO9BqsrKw03oIMOkuCZiLpknhI8HxmKO1wPRSlq2heb86y+FkJKISIElDkkxHjb265PffJEUSrpls0ZpkMwxNtXQ7zIwkxgai8FSXi2wsVGRwFPEX5kIxAQktJViKiio8quFjRtiPKoMrLbk4XGa16URJPRL4TsP0MwvbT9lG7nHn5nAy1DMcOdoo8LAFlFcMD7u4ybPdQJQ376iW/Cl6DJPhoJB9Rh6X8ebsTUKz6W0xsXDpG36YnHEP30wjPwZYzfg7ETCQYEg0HVYaW4XoW2nv4PQdgqrjiSatNQFQT0j5jnQPoJu2WrIRIuxilIWJTD5sZveS4TQbxYmLbuciV655IynQ84N+jo9AkuOwc6lYWv1MCCiGjBLTQE7LA98F+2Ey+uhgKw8OdT7k2B2t+IlVdN9xOkgBZUD3muwu2oA2wBXFX1NwFIgqQtKjeoBMCyYaJRHeT0bZDGcX+/0aCgkYPDgKWnBZyw77afVVaj7ZJ28dt0v5+B1R845JaCDUe3KujJev+nVOVLbUP1kj13VVSua0SERdgK7sFKdYATlUNB2/aUBIpEoKFhi7AlFSoDmIIGNpqOEvngBktkXQ46+eAS+N7BverQiLRMD+q2pwze2JAuwklJR5UdUUbeFebgKwkR1yooqSjANdO0T4ULVEiJPHwIDaWgHgfpUISsputx0aeYN7EP3InUVumElAICSUg+0TEeQ6OYqdTOAL4GY7ni1OIXD2AtTcQz2nPiZZAJNwugR5w3i3rjDMCdy/1YodU14QZ5kpE23Yty+XLSBUdL+EOpulQ0UWLVt3f1C9n3voKbt5YhHcJEQ8Q5825zsilqNBX4FuSXmFDgTQ+iZ1BsdV3fmW+ZOQsUUJcsCD3H253AqJqiERAVRBD43z++edm8SVJJFqiaokqJqcdiNdTwiF58XASjL2eDg0kLJbrJKjIslabgDjAsS0ki/fee8/YyEjOJNZoieRKMiYuPKxq0jp9EBeSdKSth+pM2tWYaFjnc+WWlIBCqCgBuT0d0b6Dyo0kZGxBH0MV194TuppmoGiqIktAkHg8DVXi43YJmzcgbhzW6Tjvg9TjGm2b2WNNkUBlZ9b6INSPB7p8Rj5YlkSJC0doy+4pRKuelLHBcZkYmpBxbKnNlAUCykYYnoKaPENGVhpylm+cD/50DAtdO2X2GozUDHbKOHMLmcnCxGO2+l6bImVwv97yZKOUY6vvm7FFOesUz+d4CIhSECWgZ555JmFiwdm28UXm4MiZOY3hnPFzrQ5tQxwoF5qJ2/vjPVNiosqOUgGJi2o5GuAjjfs2v6UQEL2h6DDg5mVng8E+8MADph7xxuIbGBgwhEB7DW1B9FqLRxKy7Yh1puqO5FMPtR3D+5C0o9mcEp2AOIF56aWXjH3LjWhXYkM6uvcztBNVm5Hu/QyRxN2D2e8/+tGPjArTrU84ISD2fH6YH9tBFWyk+z0lW+7rxfwOHTpktABu+d3MdyuzHQN131gcamxBRxEslC7RQ/BGAzF5oKJaUBUXVsHJWmzTUI21Og1YLMr9ekqxpTWlJ6rXkBaMts0fcQ0jXXvK4E1XXR5ytc5z35GUly8qGZuSX65euSadZ7qxa+qgXG27JuPwlpubCun7U9JTpHB9gTQ8uA4u2sWuBNF1HLHm/s9hQ0ABhPIxaSHywY9W9ZaGEDy56/Kkcm+FNH5zkxQjEKkbwS2qTYu4OBYBMSsnAS12AFxEVZZ0qXWb5stHmwRn3//+97/NAMLFopEv9JIKwU00zjOmHLeioNqPEtc777yzbMFISZzWzZt2lUjiXCoBMR/mR0mILtkcmOKRhOLFqa6uTr7xjW+YCUpJSYlZB2SDoLrlkegERMeNP/7xj+b5cUrAti3LTUBnz56Vv/zlL8Zb0U21SWmbGNND8fnnnzfOM7YuzrMlILrDMwQT+5l2ukiv0NuXgMIDdXAAtiB4wjFGW+Byp8gIHBLMTB+jLWbKNyRr06EEU1YkPkYr2N5otm2AfB+6F9fcEHpncHhefp4MuHNjTZG3qsxsOme2fCApMSwQPO1cy76hMl9/YW0906OTMg6XbBOtGgFL+5tgWMXfM5BieA0HOKaC+nxp+OY6oyIrAUlE7ojaAcnns//9BYKddhrJZyFbEUMVmXxBUgFISTmV2VJ9oFpqYPupuqtKckuXiVi/bmrUTxygOZhycOL2ApQcSDhMtu20f9gBmAs6OSO72eCVUSu1hB+tJEQjOSUTDrJ8Gakmsyo1nvmiUjXF690SjfK0Z9iDM3xKPDt37jQEROM8nRSYN9fZcNbqlrjA8+c//7lZAEvvO6vKiryW5EDpjXVmfozdxlkricPZD/Teow1uqfhbSYj15mybAUs5w+cgS0x4RHMvt84KxIWqOYsL68X1VQx5RBsZY+VxAGc7nPVnu522RLaDjiALRScnBnT15nP5yiuvmKjeTuyYFzGl1PXUU08ZDz5GvVgoP+e9bp/tBIaSIsujJMG+IS7OxHY+8cQTJrYgVY6U/paS7PPKd4/9TuLju8dJlBM3EhDfN8YyZP9bNWdkmVYVTUKjJE3PTb4LbIMzP0rwlICY30MPPSR1ILflTisjAXEgJlFgLU5wcMiQj//UeUSrhq492r49vI9OBQsREMc6OCkEemFfOon8WuBl141oB3gxjHQUHgyBYsilGwOCp6QA224j2OmmdYbUSE5m7c8ikLS2HhOt+qOWULTqLsw8sWDVb4kHVafHHKNjp+chOGljgXESaHy40QQndRYXLwFZyYeDOyNul20rlZ3P7pAquF9n5mKgwvqjW5n4ordi9ToHbNpQ+JmDDRNVW3x4af+g+okDDd2XOYuyxulbWddoZVlJyBrLOXhRJceBlmoye/AFd1Ot2LxJFvQG48DCrce5hQPbbg8OerSjMG+qmoiXWyJOP/7xj4XbQRA/i2nktXbgo2qMkQQ4IHFSQLK097Af6DDB9Uu7du1aEv5WEmLdKRlysCM2nCWTnFgmnwWW65ZIOhzcKeWw/0keHBgpERIb/sa2kHioAmIZzvo7n6PHHnvMEDoDoC70HHHgZJ9ZYo4kehIh72XZVgJjfpwsLCVZfChB8z3gmZhEOm2wzYydx0G8HmpHEsRSkn1e+ZzSU5HvH58BPp9O3Kj6pdS1d+9e086FCMPa6Niv1ACQQNm3fNad+REjPkNc98U2kJCWO60MAdlaYvZIJ4EgwuP4z1wEYSBgaN8gIhPAu4YDl5WG7PWxVHAkKKjxAtgBde4ItuKmau8q1lpw5oFZjiEe5oUZq4kx58N3IDNGPjCqvPpqE/fNg51Y40osD8fE1UkZah+WrhPdcun9ZkRGGDQBSvmzM2abJQy7PQMllT3P7ZEK2GqcKaYKjsWS2IgHJt+pmSmSWZoF4qmSnd/dIaWbS5zZ3bLPditiiv+c/XE2zpksEyUFzjQ5gHLm73zpOCAlcrJRoSkBcdDly0idOFWOdqC1Ep5tBwdJDmp8STnIckbNQYaDHP/mrJ8zTebBBap8yYlXZCJmvI8zTA5YHAD4nVviDJt9wHpy9soBiYMQB0TbD5wt012cdiUSEQe9peJv+5t4cLBieRzo6bTBdpFE3HAhMZOUOWBxEGS7ePBv1oftY958jmiDY3tsm5fyHJEI2YesI6UD1teZLAHxuaQUxPPN4MI6kmxYDl3WObFgP0QSMp8DkgH7gXjwmbiZRMxJdiRsPlN8Nvm8sA/4rLFNlLpIQpR+ODlyS1aisrZQ5sXP7E/7HLGNtB1Sm8E82Y/Mf7nTyhIQR2jMyOiGzQChgYuIVn3qgiEhD8mBB182D0UbpFhOCCS0iUkJtCHoKAmotSsk/cBz7noezIfl8mBC3h7YgCgFeTdApbcZ8d+K4NQQTwqrEgcRnPTCh83SgYgFg+cx48RW2TZa9TznARZL0mDROKp2V8r+/9xnVHHO4mI5IVgiYzTs1OwUya3Nk4pdFVK5Ay6v27HRXckCbunOQlbgMx9KDnY0TFNkp87YKbJzEOGsnzNcDsw88287q1qBKi1LlhzY+fJxUOQskIMJiYizWn7HgYVtt4Mt28wXlTNovqRWAuJnfkfPMP7OF514caCgKo4zdebD75mICwmbLzYJjITGvC2mkY3jfbzfEgPz5WcOPryH+POw7tHM92bwt/1NbDjAs98pAREfHizbDRcOtJyNWxLiZ+JCImR9WFfex/pzEOeZbeNBjBf7HHFGTwxYPzdjOvuCZRMXSqrE+WZwYR1ZJp8VkgKxIRaRKjg+/5wMUAVNErSDe2S/xvu3ldj5XBJ//k0sWRfiSeIn6RF3tpFluiXWnwf7lfmw/jz4rNpnj7+zz4gX+49581ld7rSyBGRrO4XQOAiLY4iDqjMsVKWXnFmgaq/h2Qzg8AgDQXi3NcALrk5867AY1ToRzMDWAtACrZ3YgA4EBEkoiLwZxsc1AUQ81cKdVj25OYgvB8+63VuNc0I8qri5SYQSGZmQ7tPdcvatC9J96orMjEACgz3GKflElm0XjFbtqpID/7Vfau6pnnfJQPOAnHv3vLTDDXv4AtZbgNAMkYUnvnwISD7c4juvPk9KthSvyhbc8yrt+MPOxCNfOA4cHFT5cttB2HFbwn/kAMiX2b6YJAy+lGwnX3D+zsR22kGNLykHGg72C0kavJeDBQdJ5m/zsVjxxeYRL1EzD9aJh83T1svmuZz4W1xIxBx0OfHg2RKzbc9y4bLU54h4uBHBUvMznR3lv4X6wd7CPiUZL9fAbfuB7bTYsyx+z+eA5UR7Dm297Hmh/Ozvy11/m6/zfGsICJINEAq5ZmNNUOByh/hPXzDbaAtI5fqOqZSIOEOiB9yebeLbUAcbDrbrtiqzxRIQW0oSwj+evXRsuGszJCHkW16CWHDRdcBjA9Atn+9BrLYuufxBu4y0IbAphTUc8yQfluNIsQhoFPn2nOtFtO12aXr9kgxdHMbMAxmEBcE18HbLrAztelq/vw47rZZKbnmuZOSFtlzgdhCrmfjgOgdkWxdDnGiIfeHtbMr+nuhnOzO0A4ttI9vLw5nYRh4kIhJutBk187XEY8tgXsTH5sNzvHgxD1snnvm3zc/mSSKKNz9zc5T/bJ1ZFgc64uLExnmrbc/N4rKUdrB+tl7OOjGvpeTnzMPt80L9YK+1zwfPy5Gc/cDnyfa7/Z7lRHsOI+tg7yNuzvzsdctdf5uv83xrCMiWiAfX2ISwdbb/NCShTgQ9HIM9CLHRTKicNbAnYF8bbyW817auD0VBgEs2qD2UA0ksHhWcLc+e4bjAMswW4JCCvNj0zrej0ZCbvcR5tuF3htqHpOWzFrhLd0kf9wUahLEX0QrMRnHOG+xncl0cKrhpBB4dGxyTnhNYKf6PZuk/hx1Qp6nigVomxSvpRTDiNuRIydZieLzVSEEtRPhMbDhHF3ZNioAioAjcIQjcWgLiCEvmnoBjAlRywRGE6OGZTgmUhLhVNrZg8CDyATeo82RhhT9mmJgmhuDGvXE5IUR2jikXM1jOMkFylIBSHj0o3ADPLYUWmmKjuHNX5MK/muTKaWyV0DeJtT7cRhyzKTpPuCRru4nlhECCmwXhcAErSW60Z1TG+scR6y0o6VmpklGYITllObK2OAtquEyQT2pcO6y6VEm/UgQUAUUgYRG4tQQUCQN0mdwqIe5o1RAVjRt2V6/4j8IGhPVFwYER2IHoFBDH+h7airBVg7euSlL+4wEjCbnZgqZG4VXTe9VsFHf+jQsy0AS1ISWbWKq3GagArs1JWg50sZvypGZ/jWw7BP//De7+/1bVw2jb4yQgEFM6ttbmFg+3MsJBZLfo34qAIqAI3AoEVpeADKFA9UQVGQd4SBaUUK6TiTGMOGCgJIMj2NuPdUDnTKgfri0KwgPl+j2Oy2/4GCYgTylsQft3YkvuBldb0NgwglZe6pP2T9vlwmtNMtI6Iil5KeLDRnDWTnND3vjCP+GX6f4ZyS7PktpHaqT2YK3U7cECugr3BaPUwRr9K/YfmpsGBjBWme2+U74OaOpWjn6nCCgCisCdgMDqEtASEQwi8kGAgU4vXgYJQQoaRoQFDNpmXVG0PEl03HkVaj7vlgZIQPS0wwJVRE1gska5a73XpP1kh3ESaHu7Ta51jcXeLoHaxUl4Jw3OSj481zY9vVFqD9RIyfoSWZt/c/7/0ZqkvykCioAicLsicHsS0DVE2+bi1qbLWA+EWHNXBsKSUwxvE0pckIJMrLhaxIkD+fh2wisOEhGT9QYZbB2U5o9bEK26U/qPwflgaCr6hnEUzCDBBWHDYSSEok2FsvXpLdivBwveynIRHTuxF2Lerg+v1lsRUARubwRuSwJioFOzruhSu8x9fhzriuBNR3Khv3Wk2s7ZP1Th8TosSvMU58PNGwtT9+6E112puS+A3/3wtOu72Cdn3z4vXYcRH6kN4eTHZ6N6vxnymQ2Fy0mF/ad8e5lsNtGqy9SW48RfPysCioAi4EDg9iSg8LqiQCd2XuWC1Gao4ehRh0WDxmMuFgnR225tlvGCS7kXW3/XVBgVHugJIXxmpedsrxx/FXvXH++WmaGZ0HYJMbzfqH5Lx8LR4q1FiHxQKQ0HGqSwrsC4Tq/2uh1Hf+tHRUARUAQSBoHbk4DC8Jlo2+cuIcRPqzDaNqNkX48vF42E4OjgSU9DZIRqSTmwB2F6Ks0CWJMtCKjrVLccfvGEISD/VGgRIl2vb3C/DqveQoKXR3JrcqTmQLVUIgRPxRaEzClenZA5CfN0aUUUAUVAEYiCwO1NQONw4cb234FLrbAFnZEA7ELGm47LdLh2aCESikFAndhq4YsXjmO7hB6szQmtNHcjILvux5fmk4ySDBMkdN0DdVK2pVxysCld+lr3WExR+kN/UgQUAUUgaRC4rQkIcTdCkRUQW26OG98hxA8Dn5oYczbSdiQJ0Q5EAkJwPW8DJKD7whIQveiog7MS0MsnpQMREObgWk2imbcANSz5GKcDrP3JKAL57CxFwNByqdldrZELkub10YYqAorAzSBwexMQyYSRFaB6C7R3mYWp/vOXsTh1yF0Ssk4ICO3jyV2LDe/qxHff7pANiETFtUggoN7z2ETs9bMgoG6Z6MFup5Nz85wQrORjiAlBQws3Fkrjk5tM9Ovcylw4HiCcEOK13aCyu5me0nsVAUVAEbjDELi9Cch2hvWKg1OC/2yzBLH1Q3AErtp0SiDp2ESCAWEZN2wGPN1Qj+CkW7BRXThSgVkY65fB1iG5+HGztB/BrqeMAQc3bBP9OiUUgscGNkzNQtDQwkxsFFcmmx7fKCWNxRqzzWKtZ0VAEVAEYiBwZxCQjbY9Ni7BvkFs+9AlfixUDfZgt1SSEFR1JnGtDq71gnB8u7dgEWq9eBD41JMTjopNssLBQKG9cMVuP9wpzW+3yHALolVD0rFREFKzEWa9Erthris0+/OUbCqRgrp8ySqAZ51KPjEeOf1ZEVAEFIEQAncGAdnetDYhbPlgCKgbYXqwbwmjH3D9j5GFoGrzlkP62dUI77cqSEOOaNvhfGy06l64Y7e8f1mGQED+mRCJ+VJTECAUwULrsqV4Y5GUw+EgD2o3jVZtO0HPioAioAjEh8CdRUCUYGgTQsDRIKQhgUOCibrNaNvYytt4xmViEWoeQvGUYT+gHITIcUbbDmPmjFY93DYso72jMo6N6Ziy8jJNhOosqN4yEak6PSdNUjM0WnUYOj0pAoqAIhA3AncWAUU2OzLaNrdjyMQWDxlp4hYFO/J2P4KETk9MC6NVTwyHCCgzH6SDaNUq8USipX8rAoqAIrA4BO5sAjJOBY5o2zTjcNsGulzHsX0DQ+zYzenmQEZMKdgUjhvDqa1ncQ+aXq0IKAKKQCQCdzYBRbZW/1YEFAFFQBFIGASUgBKmK7QiioAioAgkFwJKQMnV39paRUARUAQSBgEloITpCq2IIqAIKALJhYASUHL1t7ZWEVAEFIGEQUAJKGG6QiuiCCgCikByIaAElFz9ra1VBBQBRSBhEFACSpiu0IooAoqAIpBcCCgBJVd/a2sVAUVAEUgYBJSAEqYrtCKKgCKgCCQXAkpAydXf2lpFQBFQBBIGASWghOkKrYgioAgoAsmFgBJQcvW3tlYRUAQUgYRBQAkoYbpCK6IIKAKKQHIhoASUXP2trVUEFAFFIGEQUAJKmK7QiigCioAikFwIKAElV39raxUBRUARSBgElIASpiu0IoqAIqAIJBcCSkDJ1d/aWkVAEVAEEgYBJaCE6QqtiCKgCCgCyYWAElBy9be2VhFQBBSBhEFACShhukIroggoAopAciGgBJRc/a2tVQQUAUUgYRBQAkqYrtCKKAKKgCKQXAgoASVXf2trFQFFQBFIGASUgBKmK7QiioAioAgkFwJKQMnV39paRUARUAQSBgEloITpCq2IIqAIKALJhYASUHL1t7ZWEVAEFIGEQUAJKGG6QiuiCCgCikByIaAElFz9ra1VBBQBRSBhEFACSpiu0IooAoqAIpBcCCgBJVd/a2sVAUVAEUgYBJSAEqYrtCKKgCKgCCQXAkpAydXf2lpFQBFQBBIGASWghOkKrYgioAgoAsmFgBJQcvW3tlYRUAQUgYRBQAkoYbpCK6IIKAKKQHIhoASUXP2trVUEFAFFIGEQUAJKmK7QiigCioAikFwIKAElV39raxUBRUARSBgElIASpiu0IoqAIqAIJBcCSkDJ1d/aWkVAEVAEEgYBJaCE6QqtiCKgCCgCyYWAElBy9be2VhFQBBSBhEFACShhukIroggoAopAciHw/wGEwryukbmj6QAAAABJRU5ErkJggg==;" vertex="1" parent="1">
          <mxGeometry x="230" y="401.38" width="96" height="44.31" as="geometry" />
        </mxCell>
        <mxCell id="SraO-4PZSHpIVf2TnJLi-22" value="&lt;ol style=&quot;font-size: 16px;&quot;&gt;&lt;li&gt;IaC Pipelines in multiple frameworks&lt;/li&gt;&lt;li&gt;Deploy pipeline to LocalStack&lt;/li&gt;&lt;li&gt;Deploy same pipeline to AWS&lt;/li&gt;&lt;/ol&gt;" style="text;html=1;align=left;verticalAlign=middle;resizable=0;points=[];autosize=1;strokeColor=#666666;fillColor=#f5f5f5;fontColor=#333333;" vertex="1" parent="1">
          <mxGeometry x="510" width="320" height="100" as="geometry" />
        </mxCell>
        <mxCell id="SraO-4PZSHpIVf2TnJLi-25" value="&lt;font style=&quot;font-size: 14px;&quot;&gt;2&lt;/font&gt;" style="text;html=1;align=center;verticalAlign=middle;resizable=0;points=[];autosize=1;strokeColor=#6c8ebf;fillColor=#dae8fc;strokeWidth=4;rounded=1;glass=0;shadow=0;" vertex="1" parent="1">
          <mxGeometry x="110" y="280" width="30" height="30" as="geometry" />
        </mxCell>
        <mxCell id="SraO-4PZSHpIVf2TnJLi-26" value="&lt;font style=&quot;font-size: 14px;&quot;&gt;3&lt;/font&gt;" style="text;html=1;align=center;verticalAlign=middle;resizable=0;points=[];autosize=1;strokeColor=#6c8ebf;fillColor=#dae8fc;strokeWidth=4;rounded=1;glass=0;shadow=0;" vertex="1" parent="1">
          <mxGeometry x="380" y="280" width="30" height="30" as="geometry" />
        </mxCell>
      </root>
    </mxGraphModel>
  </diagram>
</mxfile>
